<?xml version="1.0" encoding="utf-8" standalone="no"?>
<!DOCTYPE svg PUBLIC "-//W3C//DTD SVG 1.1//EN"
  "http://www.w3.org/Graphics/SVG/1.1/DTD/svg11.dtd">
<svg xmlns:xlink="http://www.w3.org/1999/xlink" width="711.74044pt" height="387.034375pt" viewBox="0 0 711.74044 387.034375" xmlns="http://www.w3.org/2000/svg" version="1.1">
 <metadata>
  <rdf:RDF xmlns:dc="http://purl.org/dc/elements/1.1/" xmlns:cc="http://creativecommons.org/ns#" xmlns:rdf="http://www.w3.org/1999/02/22-rdf-syntax-ns#">
   <cc:Work>
    <dc:type rdf:resource="http://purl.org/dc/dcmitype/StillImage"/>
    <dc:date>2026-04-02T10:15:33.234393</dc:date>
    <dc:format>image/svg+xml</dc:format>
    <dc:creator>
     <cc:Agent>
      <dc:title>Matplotlib v3.10.8, https://matplotlib.org/</dc:title>
     </cc:Agent>
    </dc:creator>
   </cc:Work>
  </rdf:RDF>
 </metadata>
 <defs>
  <style type="text/css">*{stroke-linejoin: round; stroke-linecap: butt}</style>
 </defs>
 <g id="figure_1">
  <g id="patch_1">
   <path d="M 0 387.034375 
L 711.74044 387.034375 
L 711.74044 0 
L 0 0 
z
" style="fill: #ffffff"/>
  </g>
  <g id="axes_1">
   <g id="patch_2">
    <path d="M 45.478125 349.478125 
L 704.54044 349.478125 
L 704.54044 22.318125 
L 45.478125 22.318125 
z
" style="fill: #ffffff"/>
   </g>
   <g id="matplotlib.axis_1">
    <g id="xtick_1">
     <g id="line2d_1">
      <path d="M 75.435503 349.478125 
L 75.435503 22.318125 
" clip-path="url(#p3c8a046963)" style="fill: none; stroke: #b0b0b0; stroke-opacity: 0.2; stroke-width: 0.8; stroke-linecap: square"/>
     </g>
     <g id="line2d_2">
      <defs>
       <path id="meb34736df1" d="M 0 0 
L 0 3.5 
" style="stroke: #000000; stroke-width: 0.8"/>
      </defs>
      <g>
       <use xlink:href="#meb34736df1" x="75.435503" y="349.478125" style="stroke: #000000; stroke-width: 0.8"/>
      </g>
     </g>
     <g id="text_1">
      <!-- 100k -->
      <g transform="translate(62.99644 364.076562) scale(0.1 -0.1)">
       <defs>
        <path id="DejaVuSans-31" d="M 794 531 
L 1825 531 
L 1825 4091 
L 703 3866 
L 703 4441 
L 1819 4666 
L 2450 4666 
L 2450 531 
L 3481 531 
L 3481 0 
L 794 0 
L 794 531 
z
" transform="scale(0.015625)"/>
        <path id="DejaVuSans-30" d="M 2034 4250 
Q 1547 4250 1301 3770 
Q 1056 3291 1056 2328 
Q 1056 1369 1301 889 
Q 1547 409 2034 409 
Q 2525 409 2770 889 
Q 3016 1369 3016 2328 
Q 3016 3291 2770 3770 
Q 2525 4250 2034 4250 
z
M 2034 4750 
Q 2819 4750 3233 4129 
Q 3647 3509 3647 2328 
Q 3647 1150 3233 529 
Q 2819 -91 2034 -91 
Q 1250 -91 836 529 
Q 422 1150 422 2328 
Q 422 3509 836 4129 
Q 1250 4750 2034 4750 
z
" transform="scale(0.015625)"/>
        <path id="DejaVuSans-6b" d="M 581 4863 
L 1159 4863 
L 1159 1991 
L 2875 3500 
L 3609 3500 
L 1753 1863 
L 3688 0 
L 2938 0 
L 1159 1709 
L 1159 0 
L 581 0 
L 581 4863 
z
" transform="scale(0.015625)"/>
       </defs>
       <use xlink:href="#DejaVuSans-31"/>
       <use xlink:href="#DejaVuSans-30" transform="translate(63.623047 0)"/>
       <use xlink:href="#DejaVuSans-30" transform="translate(127.246094 0)"/>
       <use xlink:href="#DejaVuSans-6b" transform="translate(190.869141 0)"/>
      </g>
     </g>
    </g>
    <g id="xtick_2">
     <g id="line2d_3">
      <path d="M 397.323679 349.478125 
L 397.323679 22.318125 
" clip-path="url(#p3c8a046963)" style="fill: none; stroke: #b0b0b0; stroke-opacity: 0.2; stroke-width: 0.8; stroke-linecap: square"/>
     </g>
     <g id="line2d_4">
      <g>
       <use xlink:href="#meb34736df1" x="397.323679" y="349.478125" style="stroke: #000000; stroke-width: 0.8"/>
      </g>
     </g>
     <g id="text_2">
      <!-- 500k -->
      <g transform="translate(384.884616 364.076562) scale(0.1 -0.1)">
       <defs>
        <path id="DejaVuSans-35" d="M 691 4666 
L 3169 4666 
L 3169 4134 
L 1269 4134 
L 1269 2991 
Q 1406 3038 1543 3061 
Q 1681 3084 1819 3084 
Q 2600 3084 3056 2656 
Q 3513 2228 3513 1497 
Q 3513 744 3044 326 
Q 2575 -91 1722 -91 
Q 1428 -91 1123 -41 
Q 819 9 494 109 
L 494 744 
Q 775 591 1075 516 
Q 1375 441 1709 441 
Q 2250 441 2565 725 
Q 2881 1009 2881 1497 
Q 2881 1984 2565 2268 
Q 2250 2553 1709 2553 
Q 1456 2553 1204 2497 
Q 953 2441 691 2322 
L 691 4666 
z
" transform="scale(0.015625)"/>
       </defs>
       <use xlink:href="#DejaVuSans-35"/>
       <use xlink:href="#DejaVuSans-30" transform="translate(63.623047 0)"/>
       <use xlink:href="#DejaVuSans-30" transform="translate(127.246094 0)"/>
       <use xlink:href="#DejaVuSans-6b" transform="translate(190.869141 0)"/>
      </g>
     </g>
    </g>
    <g id="xtick_3">
     <g id="line2d_5">
      <path d="M 535.953371 349.478125 
L 535.953371 22.318125 
" clip-path="url(#p3c8a046963)" style="fill: none; stroke: #b0b0b0; stroke-opacity: 0.2; stroke-width: 0.8; stroke-linecap: square"/>
     </g>
     <g id="line2d_6">
      <g>
       <use xlink:href="#meb34736df1" x="535.953371" y="349.478125" style="stroke: #000000; stroke-width: 0.8"/>
      </g>
     </g>
     <g id="text_3">
      <!-- 1M -->
      <g transform="translate(528.458058 364.076562) scale(0.1 -0.1)">
       <defs>
        <path id="DejaVuSans-4d" d="M 628 4666 
L 1569 4666 
L 2759 1491 
L 3956 4666 
L 4897 4666 
L 4897 0 
L 4281 0 
L 4281 4097 
L 3078 897 
L 2444 897 
L 1241 4097 
L 1241 0 
L 628 0 
L 628 4666 
z
" transform="scale(0.015625)"/>
       </defs>
       <use xlink:href="#DejaVuSans-31"/>
       <use xlink:href="#DejaVuSans-4d" transform="translate(63.623047 0)"/>
      </g>
     </g>
    </g>
    <g id="xtick_4">
     <g id="line2d_7">
      <path d="M 674.583062 349.478125 
L 674.583062 22.318125 
" clip-path="url(#p3c8a046963)" style="fill: none; stroke: #b0b0b0; stroke-opacity: 0.2; stroke-width: 0.8; stroke-linecap: square"/>
     </g>
     <g id="line2d_8">
      <g>
       <use xlink:href="#meb34736df1" x="674.583062" y="349.478125" style="stroke: #000000; stroke-width: 0.8"/>
      </g>
     </g>
     <g id="text_4">
      <!-- 2M -->
      <g transform="translate(667.08775 364.076562) scale(0.1 -0.1)">
       <defs>
        <path id="DejaVuSans-32" d="M 1228 531 
L 3431 531 
L 3431 0 
L 469 0 
L 469 531 
Q 828 903 1448 1529 
Q 2069 2156 2228 2338 
Q 2531 2678 2651 2914 
Q 2772 3150 2772 3378 
Q 2772 3750 2511 3984 
Q 2250 4219 1831 4219 
Q 1534 4219 1204 4116 
Q 875 4013 500 3803 
L 500 4441 
Q 881 4594 1212 4672 
Q 1544 4750 1819 4750 
Q 2544 4750 2975 4387 
Q 3406 4025 3406 3419 
Q 3406 3131 3298 2873 
Q 3191 2616 2906 2266 
Q 2828 2175 2409 1742 
Q 1991 1309 1228 531 
z
" transform="scale(0.015625)"/>
       </defs>
       <use xlink:href="#DejaVuSans-32"/>
       <use xlink:href="#DejaVuSans-4d" transform="translate(63.623047 0)"/>
      </g>
     </g>
    </g>
    <g id="xtick_5">
     <g id="line2d_9">
      <path d="M 54.363361 349.478125 
L 54.363361 22.318125 
" clip-path="url(#p3c8a046963)" style="fill: none; stroke: #b0b0b0; stroke-opacity: 0.2; stroke-width: 0.8; stroke-linecap: square"/>
     </g>
     <g id="line2d_10">
      <defs>
       <path id="me0dd5011c8" d="M 0 0 
L 0 2 
" style="stroke: #000000; stroke-width: 0.6"/>
      </defs>
      <g>
       <use xlink:href="#me0dd5011c8" x="54.363361" y="349.478125" style="stroke: #000000; stroke-width: 0.6"/>
      </g>
     </g>
    </g>
    <g id="xtick_6">
     <g id="line2d_11">
      <path d="M 214.065195 349.478125 
L 214.065195 22.318125 
" clip-path="url(#p3c8a046963)" style="fill: none; stroke: #b0b0b0; stroke-opacity: 0.2; stroke-width: 0.8; stroke-linecap: square"/>
     </g>
     <g id="line2d_12">
      <g>
       <use xlink:href="#me0dd5011c8" x="214.065195" y="349.478125" style="stroke: #000000; stroke-width: 0.6"/>
      </g>
     </g>
    </g>
    <g id="xtick_7">
     <g id="line2d_13">
      <path d="M 295.158366 349.478125 
L 295.158366 22.318125 
" clip-path="url(#p3c8a046963)" style="fill: none; stroke: #b0b0b0; stroke-opacity: 0.2; stroke-width: 0.8; stroke-linecap: square"/>
     </g>
     <g id="line2d_14">
      <g>
       <use xlink:href="#me0dd5011c8" x="295.158366" y="349.478125" style="stroke: #000000; stroke-width: 0.6"/>
      </g>
     </g>
    </g>
    <g id="xtick_8">
     <g id="line2d_15">
      <path d="M 352.694886 349.478125 
L 352.694886 22.318125 
" clip-path="url(#p3c8a046963)" style="fill: none; stroke: #b0b0b0; stroke-opacity: 0.2; stroke-width: 0.8; stroke-linecap: square"/>
     </g>
     <g id="line2d_16">
      <g>
       <use xlink:href="#me0dd5011c8" x="352.694886" y="349.478125" style="stroke: #000000; stroke-width: 0.6"/>
      </g>
     </g>
    </g>
    <g id="xtick_9">
     <g id="line2d_17">
      <path d="M 433.788057 349.478125 
L 433.788057 22.318125 
" clip-path="url(#p3c8a046963)" style="fill: none; stroke: #b0b0b0; stroke-opacity: 0.2; stroke-width: 0.8; stroke-linecap: square"/>
     </g>
     <g id="line2d_18">
      <g>
       <use xlink:href="#me0dd5011c8" x="433.788057" y="349.478125" style="stroke: #000000; stroke-width: 0.6"/>
      </g>
     </g>
    </g>
    <g id="xtick_10">
     <g id="line2d_19">
      <path d="M 464.61825 349.478125 
L 464.61825 22.318125 
" clip-path="url(#p3c8a046963)" style="fill: none; stroke: #b0b0b0; stroke-opacity: 0.2; stroke-width: 0.8; stroke-linecap: square"/>
     </g>
     <g id="line2d_20">
      <g>
       <use xlink:href="#me0dd5011c8" x="464.61825" y="349.478125" style="stroke: #000000; stroke-width: 0.6"/>
      </g>
     </g>
    </g>
    <g id="xtick_11">
     <g id="line2d_21">
      <path d="M 491.324578 349.478125 
L 491.324578 22.318125 
" clip-path="url(#p3c8a046963)" style="fill: none; stroke: #b0b0b0; stroke-opacity: 0.2; stroke-width: 0.8; stroke-linecap: square"/>
     </g>
     <g id="line2d_22">
      <g>
       <use xlink:href="#me0dd5011c8" x="491.324578" y="349.478125" style="stroke: #000000; stroke-width: 0.6"/>
      </g>
     </g>
    </g>
    <g id="xtick_12">
     <g id="line2d_23">
      <path d="M 514.881229 349.478125 
L 514.881229 22.318125 
" clip-path="url(#p3c8a046963)" style="fill: none; stroke: #b0b0b0; stroke-opacity: 0.2; stroke-width: 0.8; stroke-linecap: square"/>
     </g>
     <g id="line2d_24">
      <g>
       <use xlink:href="#me0dd5011c8" x="514.881229" y="349.478125" style="stroke: #000000; stroke-width: 0.6"/>
      </g>
     </g>
    </g>
    <g id="text_5">
     <!-- Nodes -->
     <g transform="translate(359.353814 377.754687) scale(0.1 -0.1)">
      <defs>
       <path id="DejaVuSans-4e" d="M 628 4666 
L 1478 4666 
L 3547 763 
L 3547 4666 
L 4159 4666 
L 4159 0 
L 3309 0 
L 1241 3903 
L 1241 0 
L 628 0 
L 628 4666 
z
" transform="scale(0.015625)"/>
       <path id="DejaVuSans-6f" d="M 1959 3097 
Q 1497 3097 1228 2736 
Q 959 2375 959 1747 
Q 959 1119 1226 758 
Q 1494 397 1959 397 
Q 2419 397 2687 759 
Q 2956 1122 2956 1747 
Q 2956 2369 2687 2733 
Q 2419 3097 1959 3097 
z
M 1959 3584 
Q 2709 3584 3137 3096 
Q 3566 2609 3566 1747 
Q 3566 888 3137 398 
Q 2709 -91 1959 -91 
Q 1206 -91 779 398 
Q 353 888 353 1747 
Q 353 2609 779 3096 
Q 1206 3584 1959 3584 
z
" transform="scale(0.015625)"/>
       <path id="DejaVuSans-64" d="M 2906 2969 
L 2906 4863 
L 3481 4863 
L 3481 0 
L 2906 0 
L 2906 525 
Q 2725 213 2448 61 
Q 2172 -91 1784 -91 
Q 1150 -91 751 415 
Q 353 922 353 1747 
Q 353 2572 751 3078 
Q 1150 3584 1784 3584 
Q 2172 3584 2448 3432 
Q 2725 3281 2906 2969 
z
M 947 1747 
Q 947 1113 1208 752 
Q 1469 391 1925 391 
Q 2381 391 2643 752 
Q 2906 1113 2906 1747 
Q 2906 2381 2643 2742 
Q 2381 3103 1925 3103 
Q 1469 3103 1208 2742 
Q 947 2381 947 1747 
z
" transform="scale(0.015625)"/>
       <path id="DejaVuSans-65" d="M 3597 1894 
L 3597 1613 
L 953 1613 
Q 991 1019 1311 708 
Q 1631 397 2203 397 
Q 2534 397 2845 478 
Q 3156 559 3463 722 
L 3463 178 
Q 3153 47 2828 -22 
Q 2503 -91 2169 -91 
Q 1331 -91 842 396 
Q 353 884 353 1716 
Q 353 2575 817 3079 
Q 1281 3584 2069 3584 
Q 2775 3584 3186 3129 
Q 3597 2675 3597 1894 
z
M 3022 2063 
Q 3016 2534 2758 2815 
Q 2500 3097 2075 3097 
Q 1594 3097 1305 2825 
Q 1016 2553 972 2059 
L 3022 2063 
z
" transform="scale(0.015625)"/>
       <path id="DejaVuSans-73" d="M 2834 3397 
L 2834 2853 
Q 2591 2978 2328 3040 
Q 2066 3103 1784 3103 
Q 1356 3103 1142 2972 
Q 928 2841 928 2578 
Q 928 2378 1081 2264 
Q 1234 2150 1697 2047 
L 1894 2003 
Q 2506 1872 2764 1633 
Q 3022 1394 3022 966 
Q 3022 478 2636 193 
Q 2250 -91 1575 -91 
Q 1294 -91 989 -36 
Q 684 19 347 128 
L 347 722 
Q 666 556 975 473 
Q 1284 391 1588 391 
Q 1994 391 2212 530 
Q 2431 669 2431 922 
Q 2431 1156 2273 1281 
Q 2116 1406 1581 1522 
L 1381 1569 
Q 847 1681 609 1914 
Q 372 2147 372 2553 
Q 372 3047 722 3315 
Q 1072 3584 1716 3584 
Q 2034 3584 2315 3537 
Q 2597 3491 2834 3397 
z
" transform="scale(0.015625)"/>
      </defs>
      <use xlink:href="#DejaVuSans-4e"/>
      <use xlink:href="#DejaVuSans-6f" transform="translate(74.804688 0)"/>
      <use xlink:href="#DejaVuSans-64" transform="translate(135.986328 0)"/>
      <use xlink:href="#DejaVuSans-65" transform="translate(199.462891 0)"/>
      <use xlink:href="#DejaVuSans-73" transform="translate(260.986328 0)"/>
     </g>
    </g>
   </g>
   <g id="matplotlib.axis_2">
    <g id="ytick_1">
     <g id="line2d_25">
      <path d="M 45.478125 321.626628 
L 704.54044 321.626628 
" clip-path="url(#p3c8a046963)" style="fill: none; stroke: #b0b0b0; stroke-opacity: 0.2; stroke-width: 0.8; stroke-linecap: square"/>
     </g>
     <g id="line2d_26">
      <defs>
       <path id="m4b84008911" d="M 0 0 
L -3.5 0 
" style="stroke: #000000; stroke-width: 0.8"/>
      </defs>
      <g>
       <use xlink:href="#m4b84008911" x="45.478125" y="321.626628" style="stroke: #000000; stroke-width: 0.8"/>
      </g>
     </g>
     <g id="text_6">
      <!-- $\mathdefault{10^{4}}$ -->
      <g transform="translate(20.878125 325.425847) scale(0.1 -0.1)">
       <defs>
        <path id="DejaVuSans-34" d="M 2419 4116 
L 825 1625 
L 2419 1625 
L 2419 4116 
z
M 2253 4666 
L 3047 4666 
L 3047 1625 
L 3713 1625 
L 3713 1100 
L 3047 1100 
L 3047 0 
L 2419 0 
L 2419 1100 
L 313 1100 
L 313 1709 
L 2253 4666 
z
" transform="scale(0.015625)"/>
       </defs>
       <use xlink:href="#DejaVuSans-31" transform="translate(0 0.684375)"/>
       <use xlink:href="#DejaVuSans-30" transform="translate(63.623047 0.684375)"/>
       <use xlink:href="#DejaVuSans-34" transform="translate(128.203125 38.965625) scale(0.7)"/>
      </g>
     </g>
    </g>
    <g id="ytick_2">
     <g id="line2d_27">
      <path d="M 45.478125 67.837274 
L 704.54044 67.837274 
" clip-path="url(#p3c8a046963)" style="fill: none; stroke: #b0b0b0; stroke-opacity: 0.2; stroke-width: 0.8; stroke-linecap: square"/>
     </g>
     <g id="line2d_28">
      <g>
       <use xlink:href="#m4b84008911" x="45.478125" y="67.837274" style="stroke: #000000; stroke-width: 0.8"/>
      </g>
     </g>
     <g id="text_7">
      <!-- $\mathdefault{10^{5}}$ -->
      <g transform="translate(20.878125 71.636493) scale(0.1 -0.1)">
       <use xlink:href="#DejaVuSans-31" transform="translate(0 0.684375)"/>
       <use xlink:href="#DejaVuSans-30" transform="translate(63.623047 0.684375)"/>
       <use xlink:href="#DejaVuSans-35" transform="translate(128.203125 38.965625) scale(0.7)"/>
      </g>
     </g>
    </g>
    <g id="ytick_3">
     <g id="line2d_29">
      <path d="M 45.478125 346.221358 
L 704.54044 346.221358 
" clip-path="url(#p3c8a046963)" style="fill: none; stroke: #b0b0b0; stroke-opacity: 0.2; stroke-width: 0.8; stroke-linecap: square"/>
     </g>
     <g id="line2d_30">
      <defs>
       <path id="m9c12d62aba" d="M 0 0 
L -2 0 
" style="stroke: #000000; stroke-width: 0.6"/>
      </defs>
      <g>
       <use xlink:href="#m9c12d62aba" x="45.478125" y="346.221358" style="stroke: #000000; stroke-width: 0.6"/>
      </g>
     </g>
    </g>
    <g id="ytick_4">
     <g id="line2d_31">
      <path d="M 45.478125 333.239392 
L 704.54044 333.239392 
" clip-path="url(#p3c8a046963)" style="fill: none; stroke: #b0b0b0; stroke-opacity: 0.2; stroke-width: 0.8; stroke-linecap: square"/>
     </g>
     <g id="line2d_32">
      <g>
       <use xlink:href="#m9c12d62aba" x="45.478125" y="333.239392" style="stroke: #000000; stroke-width: 0.6"/>
      </g>
     </g>
    </g>
    <g id="ytick_5">
     <g id="line2d_33">
      <path d="M 45.478125 245.22842 
L 704.54044 245.22842 
" clip-path="url(#p3c8a046963)" style="fill: none; stroke: #b0b0b0; stroke-opacity: 0.2; stroke-width: 0.8; stroke-linecap: square"/>
     </g>
     <g id="line2d_34">
      <g>
       <use xlink:href="#m9c12d62aba" x="45.478125" y="245.22842" style="stroke: #000000; stroke-width: 0.6"/>
      </g>
     </g>
    </g>
    <g id="ytick_6">
     <g id="line2d_35">
      <path d="M 45.478125 200.538333 
L 704.54044 200.538333 
" clip-path="url(#p3c8a046963)" style="fill: none; stroke: #b0b0b0; stroke-opacity: 0.2; stroke-width: 0.8; stroke-linecap: square"/>
     </g>
     <g id="line2d_36">
      <g>
       <use xlink:href="#m9c12d62aba" x="45.478125" y="200.538333" style="stroke: #000000; stroke-width: 0.6"/>
      </g>
     </g>
    </g>
    <g id="ytick_7">
     <g id="line2d_37">
      <path d="M 45.478125 168.830212 
L 704.54044 168.830212 
" clip-path="url(#p3c8a046963)" style="fill: none; stroke: #b0b0b0; stroke-opacity: 0.2; stroke-width: 0.8; stroke-linecap: square"/>
     </g>
     <g id="line2d_38">
      <g>
       <use xlink:href="#m9c12d62aba" x="45.478125" y="168.830212" style="stroke: #000000; stroke-width: 0.6"/>
      </g>
     </g>
    </g>
    <g id="ytick_8">
     <g id="line2d_39">
      <path d="M 45.478125 144.235482 
L 704.54044 144.235482 
" clip-path="url(#p3c8a046963)" style="fill: none; stroke: #b0b0b0; stroke-opacity: 0.2; stroke-width: 0.8; stroke-linecap: square"/>
     </g>
     <g id="line2d_40">
      <g>
       <use xlink:href="#m9c12d62aba" x="45.478125" y="144.235482" style="stroke: #000000; stroke-width: 0.6"/>
      </g>
     </g>
    </g>
    <g id="ytick_9">
     <g id="line2d_41">
      <path d="M 45.478125 124.140125 
L 704.54044 124.140125 
" clip-path="url(#p3c8a046963)" style="fill: none; stroke: #b0b0b0; stroke-opacity: 0.2; stroke-width: 0.8; stroke-linecap: square"/>
     </g>
     <g id="line2d_42">
      <g>
       <use xlink:href="#m9c12d62aba" x="45.478125" y="124.140125" style="stroke: #000000; stroke-width: 0.6"/>
      </g>
     </g>
    </g>
    <g id="ytick_10">
     <g id="line2d_43">
      <path d="M 45.478125 107.149742 
L 704.54044 107.149742 
" clip-path="url(#p3c8a046963)" style="fill: none; stroke: #b0b0b0; stroke-opacity: 0.2; stroke-width: 0.8; stroke-linecap: square"/>
     </g>
     <g id="line2d_44">
      <g>
       <use xlink:href="#m9c12d62aba" x="45.478125" y="107.149742" style="stroke: #000000; stroke-width: 0.6"/>
      </g>
     </g>
    </g>
    <g id="ytick_11">
     <g id="line2d_45">
      <path d="M 45.478125 92.432004 
L 704.54044 92.432004 
" clip-path="url(#p3c8a046963)" style="fill: none; stroke: #b0b0b0; stroke-opacity: 0.2; stroke-width: 0.8; stroke-linecap: square"/>
     </g>
     <g id="line2d_46">
      <g>
       <use xlink:href="#m9c12d62aba" x="45.478125" y="92.432004" style="stroke: #000000; stroke-width: 0.6"/>
      </g>
     </g>
    </g>
    <g id="ytick_12">
     <g id="line2d_47">
      <path d="M 45.478125 79.450038 
L 704.54044 79.450038 
" clip-path="url(#p3c8a046963)" style="fill: none; stroke: #b0b0b0; stroke-opacity: 0.2; stroke-width: 0.8; stroke-linecap: square"/>
     </g>
     <g id="line2d_48">
      <g>
       <use xlink:href="#m9c12d62aba" x="45.478125" y="79.450038" style="stroke: #000000; stroke-width: 0.6"/>
      </g>
     </g>
    </g>
    <g id="text_8">
     <!-- Primary metric (ms) -->
     <g transform="translate(14.798438 235.874687) rotate(-90) scale(0.1 -0.1)">
      <defs>
       <path id="DejaVuSans-50" d="M 1259 4147 
L 1259 2394 
L 2053 2394 
Q 2494 2394 2734 2622 
Q 2975 2850 2975 3272 
Q 2975 3691 2734 3919 
Q 2494 4147 2053 4147 
L 1259 4147 
z
M 628 4666 
L 2053 4666 
Q 2838 4666 3239 4311 
Q 3641 3956 3641 3272 
Q 3641 2581 3239 2228 
Q 2838 1875 2053 1875 
L 1259 1875 
L 1259 0 
L 628 0 
L 628 4666 
z
" transform="scale(0.015625)"/>
       <path id="DejaVuSans-72" d="M 2631 2963 
Q 2534 3019 2420 3045 
Q 2306 3072 2169 3072 
Q 1681 3072 1420 2755 
Q 1159 2438 1159 1844 
L 1159 0 
L 581 0 
L 581 3500 
L 1159 3500 
L 1159 2956 
Q 1341 3275 1631 3429 
Q 1922 3584 2338 3584 
Q 2397 3584 2469 3576 
Q 2541 3569 2628 3553 
L 2631 2963 
z
" transform="scale(0.015625)"/>
       <path id="DejaVuSans-69" d="M 603 3500 
L 1178 3500 
L 1178 0 
L 603 0 
L 603 3500 
z
M 603 4863 
L 1178 4863 
L 1178 4134 
L 603 4134 
L 603 4863 
z
" transform="scale(0.015625)"/>
       <path id="DejaVuSans-6d" d="M 3328 2828 
Q 3544 3216 3844 3400 
Q 4144 3584 4550 3584 
Q 5097 3584 5394 3201 
Q 5691 2819 5691 2113 
L 5691 0 
L 5113 0 
L 5113 2094 
Q 5113 2597 4934 2840 
Q 4756 3084 4391 3084 
Q 3944 3084 3684 2787 
Q 3425 2491 3425 1978 
L 3425 0 
L 2847 0 
L 2847 2094 
Q 2847 2600 2669 2842 
Q 2491 3084 2119 3084 
Q 1678 3084 1418 2786 
Q 1159 2488 1159 1978 
L 1159 0 
L 581 0 
L 581 3500 
L 1159 3500 
L 1159 2956 
Q 1356 3278 1631 3431 
Q 1906 3584 2284 3584 
Q 2666 3584 2933 3390 
Q 3200 3197 3328 2828 
z
" transform="scale(0.015625)"/>
       <path id="DejaVuSans-61" d="M 2194 1759 
Q 1497 1759 1228 1600 
Q 959 1441 959 1056 
Q 959 750 1161 570 
Q 1363 391 1709 391 
Q 2188 391 2477 730 
Q 2766 1069 2766 1631 
L 2766 1759 
L 2194 1759 
z
M 3341 1997 
L 3341 0 
L 2766 0 
L 2766 531 
Q 2569 213 2275 61 
Q 1981 -91 1556 -91 
Q 1019 -91 701 211 
Q 384 513 384 1019 
Q 384 1609 779 1909 
Q 1175 2209 1959 2209 
L 2766 2209 
L 2766 2266 
Q 2766 2663 2505 2880 
Q 2244 3097 1772 3097 
Q 1472 3097 1187 3025 
Q 903 2953 641 2809 
L 641 3341 
Q 956 3463 1253 3523 
Q 1550 3584 1831 3584 
Q 2591 3584 2966 3190 
Q 3341 2797 3341 1997 
z
" transform="scale(0.015625)"/>
       <path id="DejaVuSans-79" d="M 2059 -325 
Q 1816 -950 1584 -1140 
Q 1353 -1331 966 -1331 
L 506 -1331 
L 506 -850 
L 844 -850 
Q 1081 -850 1212 -737 
Q 1344 -625 1503 -206 
L 1606 56 
L 191 3500 
L 800 3500 
L 1894 763 
L 2988 3500 
L 3597 3500 
L 2059 -325 
z
" transform="scale(0.015625)"/>
       <path id="DejaVuSans-20" transform="scale(0.015625)"/>
       <path id="DejaVuSans-74" d="M 1172 4494 
L 1172 3500 
L 2356 3500 
L 2356 3053 
L 1172 3053 
L 1172 1153 
Q 1172 725 1289 603 
Q 1406 481 1766 481 
L 2356 481 
L 2356 0 
L 1766 0 
Q 1100 0 847 248 
Q 594 497 594 1153 
L 594 3053 
L 172 3053 
L 172 3500 
L 594 3500 
L 594 4494 
L 1172 4494 
z
" transform="scale(0.015625)"/>
       <path id="DejaVuSans-63" d="M 3122 3366 
L 3122 2828 
Q 2878 2963 2633 3030 
Q 2388 3097 2138 3097 
Q 1578 3097 1268 2742 
Q 959 2388 959 1747 
Q 959 1106 1268 751 
Q 1578 397 2138 397 
Q 2388 397 2633 464 
Q 2878 531 3122 666 
L 3122 134 
Q 2881 22 2623 -34 
Q 2366 -91 2075 -91 
Q 1284 -91 818 406 
Q 353 903 353 1747 
Q 353 2603 823 3093 
Q 1294 3584 2113 3584 
Q 2378 3584 2631 3529 
Q 2884 3475 3122 3366 
z
" transform="scale(0.015625)"/>
       <path id="DejaVuSans-28" d="M 1984 4856 
Q 1566 4138 1362 3434 
Q 1159 2731 1159 2009 
Q 1159 1288 1364 580 
Q 1569 -128 1984 -844 
L 1484 -844 
Q 1016 -109 783 600 
Q 550 1309 550 2009 
Q 550 2706 781 3412 
Q 1013 4119 1484 4856 
L 1984 4856 
z
" transform="scale(0.015625)"/>
       <path id="DejaVuSans-29" d="M 513 4856 
L 1013 4856 
Q 1481 4119 1714 3412 
Q 1947 2706 1947 2009 
Q 1947 1309 1714 600 
Q 1481 -109 1013 -844 
L 513 -844 
Q 928 -128 1133 580 
Q 1338 1288 1338 2009 
Q 1338 2731 1133 3434 
Q 928 4138 513 4856 
z
" transform="scale(0.015625)"/>
      </defs>
      <use xlink:href="#DejaVuSans-50"/>
      <use xlink:href="#DejaVuSans-72" transform="translate(58.552734 0)"/>
      <use xlink:href="#DejaVuSans-69" transform="translate(99.666016 0)"/>
      <use xlink:href="#DejaVuSans-6d" transform="translate(127.449219 0)"/>
      <use xlink:href="#DejaVuSans-61" transform="translate(224.861328 0)"/>
      <use xlink:href="#DejaVuSans-72" transform="translate(286.140625 0)"/>
      <use xlink:href="#DejaVuSans-79" transform="translate(327.253906 0)"/>
      <use xlink:href="#DejaVuSans-20" transform="translate(386.433594 0)"/>
      <use xlink:href="#DejaVuSans-6d" transform="translate(418.220703 0)"/>
      <use xlink:href="#DejaVuSans-65" transform="translate(515.632812 0)"/>
      <use xlink:href="#DejaVuSans-74" transform="translate(577.15625 0)"/>
      <use xlink:href="#DejaVuSans-72" transform="translate(616.365234 0)"/>
      <use xlink:href="#DejaVuSans-69" transform="translate(657.478516 0)"/>
      <use xlink:href="#DejaVuSans-63" transform="translate(685.261719 0)"/>
      <use xlink:href="#DejaVuSans-20" transform="translate(740.242188 0)"/>
      <use xlink:href="#DejaVuSans-28" transform="translate(772.029297 0)"/>
      <use xlink:href="#DejaVuSans-6d" transform="translate(811.042969 0)"/>
      <use xlink:href="#DejaVuSans-73" transform="translate(908.455078 0)"/>
      <use xlink:href="#DejaVuSans-29" transform="translate(960.554688 0)"/>
     </g>
    </g>
   </g>
   <g id="line2d_49">
    <path d="M 75.435503 229.374411 
L 397.323679 220.347492 
L 535.953371 220.026953 
L 674.583062 220.365083 
" clip-path="url(#p3c8a046963)" style="fill: none; stroke: #1f77b4; stroke-width: 1.8; stroke-linecap: square"/>
    <defs>
     <path id="m17739203f5" d="M 0 3 
C 0.795609 3 1.55874 2.683901 2.12132 2.12132 
C 2.683901 1.55874 3 0.795609 3 0 
C 3 -0.795609 2.683901 -1.55874 2.12132 -2.12132 
C 1.55874 -2.683901 0.795609 -3 0 -3 
C -0.795609 -3 -1.55874 -2.683901 -2.12132 -2.12132 
C -2.683901 -1.55874 -3 -0.795609 -3 0 
C -3 0.795609 -2.683901 1.55874 -2.12132 2.12132 
C -1.55874 2.683901 -0.795609 3 0 3 
z
" style="stroke: #1f77b4"/>
    </defs>
    <g clip-path="url(#p3c8a046963)">
     <use xlink:href="#m17739203f5" x="75.435503" y="229.374411" style="fill: #1f77b4; stroke: #1f77b4"/>
     <use xlink:href="#m17739203f5" x="397.323679" y="220.347492" style="fill: #1f77b4; stroke: #1f77b4"/>
     <use xlink:href="#m17739203f5" x="535.953371" y="220.026953" style="fill: #1f77b4; stroke: #1f77b4"/>
     <use xlink:href="#m17739203f5" x="674.583062" y="220.365083" style="fill: #1f77b4; stroke: #1f77b4"/>
    </g>
   </g>
   <g id="line2d_50">
    <path d="M 75.435503 312.017007 
L 397.323679 312.361 
L 535.953371 311.845412 
L 674.583062 312.087741 
" clip-path="url(#p3c8a046963)" style="fill: none; stroke: #1f77b4; stroke-width: 1.8; stroke-linecap: square"/>
    <g clip-path="url(#p3c8a046963)">
     <use xlink:href="#m17739203f5" x="75.435503" y="312.017007" style="fill: #1f77b4; stroke: #1f77b4"/>
     <use xlink:href="#m17739203f5" x="397.323679" y="312.361" style="fill: #1f77b4; stroke: #1f77b4"/>
     <use xlink:href="#m17739203f5" x="535.953371" y="311.845412" style="fill: #1f77b4; stroke: #1f77b4"/>
     <use xlink:href="#m17739203f5" x="674.583062" y="312.087741" style="fill: #1f77b4; stroke: #1f77b4"/>
    </g>
   </g>
   <g id="line2d_51">
    <path d="M 75.435503 312.11807 
L 397.323679 311.916036 
L 535.953371 334.607216 
L 674.583062 312.209106 
" clip-path="url(#p3c8a046963)" style="fill: none; stroke: #1f77b4; stroke-width: 1.8; stroke-linecap: square"/>
    <g clip-path="url(#p3c8a046963)">
     <use xlink:href="#m17739203f5" x="75.435503" y="312.11807" style="fill: #1f77b4; stroke: #1f77b4"/>
     <use xlink:href="#m17739203f5" x="397.323679" y="311.916036" style="fill: #1f77b4; stroke: #1f77b4"/>
     <use xlink:href="#m17739203f5" x="535.953371" y="334.607216" style="fill: #1f77b4; stroke: #1f77b4"/>
     <use xlink:href="#m17739203f5" x="674.583062" y="312.209106" style="fill: #1f77b4; stroke: #1f77b4"/>
    </g>
   </g>
   <g id="line2d_52">
    <path d="M 75.435503 277.201385 
L 397.323679 277.23822 
L 535.953371 263.290366 
L 674.583062 277.068884 
" clip-path="url(#p3c8a046963)" style="fill: none; stroke: #1f77b4; stroke-width: 1.8; stroke-linecap: square"/>
    <g clip-path="url(#p3c8a046963)">
     <use xlink:href="#m17739203f5" x="75.435503" y="277.201385" style="fill: #1f77b4; stroke: #1f77b4"/>
     <use xlink:href="#m17739203f5" x="397.323679" y="277.23822" style="fill: #1f77b4; stroke: #1f77b4"/>
     <use xlink:href="#m17739203f5" x="535.953371" y="263.290366" style="fill: #1f77b4; stroke: #1f77b4"/>
     <use xlink:href="#m17739203f5" x="674.583062" y="277.068884" style="fill: #1f77b4; stroke: #1f77b4"/>
    </g>
   </g>
   <g id="line2d_53">
    <path d="M 75.435503 244.808569 
L 397.323679 211.979778 
L 535.953371 189.816425 
L 674.583062 160.914637 
" clip-path="url(#p3c8a046963)" style="fill: none; stroke-dasharray: 6.66,2.88; stroke-dashoffset: 0; stroke: #d62728; stroke-width: 1.8"/>
    <defs>
     <path id="m7be30336fc" d="M 0 3 
C 0.795609 3 1.55874 2.683901 2.12132 2.12132 
C 2.683901 1.55874 3 0.795609 3 0 
C 3 -0.795609 2.683901 -1.55874 2.12132 -2.12132 
C 1.55874 -2.683901 0.795609 -3 0 -3 
C -0.795609 -3 -1.55874 -2.683901 -2.12132 -2.12132 
C -2.683901 -1.55874 -3 -0.795609 -3 0 
C -3 0.795609 -2.683901 1.55874 -2.12132 2.12132 
C -1.55874 2.683901 -0.795609 3 0 3 
z
" style="stroke: #d62728"/>
    </defs>
    <g clip-path="url(#p3c8a046963)">
     <use xlink:href="#m7be30336fc" x="75.435503" y="244.808569" style="fill: #d62728; stroke: #d62728"/>
     <use xlink:href="#m7be30336fc" x="397.323679" y="211.979778" style="fill: #d62728; stroke: #d62728"/>
     <use xlink:href="#m7be30336fc" x="535.953371" y="189.816425" style="fill: #d62728; stroke: #d62728"/>
     <use xlink:href="#m7be30336fc" x="674.583062" y="160.914637" style="fill: #d62728; stroke: #d62728"/>
    </g>
   </g>
   <g id="line2d_54">
    <path d="M 75.435503 223.943942 
L 397.323679 200.015409 
L 535.953371 181.803577 
L 674.583062 147.200969 
" clip-path="url(#p3c8a046963)" style="fill: none; stroke-dasharray: 6.66,2.88; stroke-dashoffset: 0; stroke: #d62728; stroke-width: 1.8"/>
    <g clip-path="url(#p3c8a046963)">
     <use xlink:href="#m7be30336fc" x="75.435503" y="223.943942" style="fill: #d62728; stroke: #d62728"/>
     <use xlink:href="#m7be30336fc" x="397.323679" y="200.015409" style="fill: #d62728; stroke: #d62728"/>
     <use xlink:href="#m7be30336fc" x="535.953371" y="181.803577" style="fill: #d62728; stroke: #d62728"/>
     <use xlink:href="#m7be30336fc" x="674.583062" y="147.200969" style="fill: #d62728; stroke: #d62728"/>
    </g>
   </g>
   <g id="line2d_55">
    <path d="M 75.435503 37.189034 
L 397.323679 203.650853 
L 535.953371 162.730664 
L 674.583062 88.278822 
" clip-path="url(#p3c8a046963)" style="fill: none; stroke-dasharray: 6.66,2.88; stroke-dashoffset: 0; stroke: #d62728; stroke-width: 1.8"/>
    <g clip-path="url(#p3c8a046963)">
     <use xlink:href="#m7be30336fc" x="75.435503" y="37.189034" style="fill: #d62728; stroke: #d62728"/>
     <use xlink:href="#m7be30336fc" x="397.323679" y="203.650853" style="fill: #d62728; stroke: #d62728"/>
     <use xlink:href="#m7be30336fc" x="535.953371" y="162.730664" style="fill: #d62728; stroke: #d62728"/>
     <use xlink:href="#m7be30336fc" x="674.583062" y="88.278822" style="fill: #d62728; stroke: #d62728"/>
    </g>
   </g>
   <g id="line2d_56">
    <path d="M 75.435503 259.249261 
L 397.323679 224.917428 
L 535.953371 180.92572 
L 674.583062 145.108184 
" clip-path="url(#p3c8a046963)" style="fill: none; stroke-dasharray: 6.66,2.88; stroke-dashoffset: 0; stroke: #d62728; stroke-width: 1.8"/>
    <g clip-path="url(#p3c8a046963)">
     <use xlink:href="#m7be30336fc" x="75.435503" y="259.249261" style="fill: #d62728; stroke: #d62728"/>
     <use xlink:href="#m7be30336fc" x="397.323679" y="224.917428" style="fill: #d62728; stroke: #d62728"/>
     <use xlink:href="#m7be30336fc" x="535.953371" y="180.92572" style="fill: #d62728; stroke: #d62728"/>
     <use xlink:href="#m7be30336fc" x="674.583062" y="145.108184" style="fill: #d62728; stroke: #d62728"/>
    </g>
   </g>
   <g id="patch_3">
    <path d="M 45.478125 349.478125 
L 45.478125 22.318125 
" style="fill: none; stroke: #000000; stroke-width: 0.8; stroke-linejoin: miter; stroke-linecap: square"/>
   </g>
   <g id="patch_4">
    <path d="M 704.54044 349.478125 
L 704.54044 22.318125 
" style="fill: none; stroke: #000000; stroke-width: 0.8; stroke-linejoin: miter; stroke-linecap: square"/>
   </g>
   <g id="patch_5">
    <path d="M 45.478125 349.478125 
L 704.54044 349.478125 
" style="fill: none; stroke: #000000; stroke-width: 0.8; stroke-linejoin: miter; stroke-linecap: square"/>
   </g>
   <g id="patch_6">
    <path d="M 45.478125 22.318125 
L 704.54044 22.318125 
" style="fill: none; stroke: #000000; stroke-width: 0.8; stroke-linejoin: miter; stroke-linecap: square"/>
   </g>
   <g id="text_9">
    <!-- WCC size sweep by resource profile -->
    <g transform="translate(268.04897 16.318125) scale(0.12 -0.12)">
     <defs>
      <path id="DejaVuSans-57" d="M 213 4666 
L 850 4666 
L 1831 722 
L 2809 4666 
L 3519 4666 
L 4500 722 
L 5478 4666 
L 6119 4666 
L 4947 0 
L 4153 0 
L 3169 4050 
L 2175 0 
L 1381 0 
L 213 4666 
z
" transform="scale(0.015625)"/>
      <path id="DejaVuSans-43" d="M 4122 4306 
L 4122 3641 
Q 3803 3938 3442 4084 
Q 3081 4231 2675 4231 
Q 1875 4231 1450 3742 
Q 1025 3253 1025 2328 
Q 1025 1406 1450 917 
Q 1875 428 2675 428 
Q 3081 428 3442 575 
Q 3803 722 4122 1019 
L 4122 359 
Q 3791 134 3420 21 
Q 3050 -91 2638 -91 
Q 1578 -91 968 557 
Q 359 1206 359 2328 
Q 359 3453 968 4101 
Q 1578 4750 2638 4750 
Q 3056 4750 3426 4639 
Q 3797 4528 4122 4306 
z
" transform="scale(0.015625)"/>
      <path id="DejaVuSans-7a" d="M 353 3500 
L 3084 3500 
L 3084 2975 
L 922 459 
L 3084 459 
L 3084 0 
L 275 0 
L 275 525 
L 2438 3041 
L 353 3041 
L 353 3500 
z
" transform="scale(0.015625)"/>
      <path id="DejaVuSans-77" d="M 269 3500 
L 844 3500 
L 1563 769 
L 2278 3500 
L 2956 3500 
L 3675 769 
L 4391 3500 
L 4966 3500 
L 4050 0 
L 3372 0 
L 2619 2869 
L 1863 0 
L 1184 0 
L 269 3500 
z
" transform="scale(0.015625)"/>
      <path id="DejaVuSans-70" d="M 1159 525 
L 1159 -1331 
L 581 -1331 
L 581 3500 
L 1159 3500 
L 1159 2969 
Q 1341 3281 1617 3432 
Q 1894 3584 2278 3584 
Q 2916 3584 3314 3078 
Q 3713 2572 3713 1747 
Q 3713 922 3314 415 
Q 2916 -91 2278 -91 
Q 1894 -91 1617 61 
Q 1341 213 1159 525 
z
M 3116 1747 
Q 3116 2381 2855 2742 
Q 2594 3103 2138 3103 
Q 1681 3103 1420 2742 
Q 1159 2381 1159 1747 
Q 1159 1113 1420 752 
Q 1681 391 2138 391 
Q 2594 391 2855 752 
Q 3116 1113 3116 1747 
z
" transform="scale(0.015625)"/>
      <path id="DejaVuSans-62" d="M 3116 1747 
Q 3116 2381 2855 2742 
Q 2594 3103 2138 3103 
Q 1681 3103 1420 2742 
Q 1159 2381 1159 1747 
Q 1159 1113 1420 752 
Q 1681 391 2138 391 
Q 2594 391 2855 752 
Q 3116 1113 3116 1747 
z
M 1159 2969 
Q 1341 3281 1617 3432 
Q 1894 3584 2278 3584 
Q 2916 3584 3314 3078 
Q 3713 2572 3713 1747 
Q 3713 922 3314 415 
Q 2916 -91 2278 -91 
Q 1894 -91 1617 61 
Q 1341 213 1159 525 
L 1159 0 
L 581 0 
L 581 4863 
L 1159 4863 
L 1159 2969 
z
" transform="scale(0.015625)"/>
      <path id="DejaVuSans-75" d="M 544 1381 
L 544 3500 
L 1119 3500 
L 1119 1403 
Q 1119 906 1312 657 
Q 1506 409 1894 409 
Q 2359 409 2629 706 
Q 2900 1003 2900 1516 
L 2900 3500 
L 3475 3500 
L 3475 0 
L 2900 0 
L 2900 538 
Q 2691 219 2414 64 
Q 2138 -91 1772 -91 
Q 1169 -91 856 284 
Q 544 659 544 1381 
z
M 1991 3584 
L 1991 3584 
z
" transform="scale(0.015625)"/>
      <path id="DejaVuSans-66" d="M 2375 4863 
L 2375 4384 
L 1825 4384 
Q 1516 4384 1395 4259 
Q 1275 4134 1275 3809 
L 1275 3500 
L 2222 3500 
L 2222 3053 
L 1275 3053 
L 1275 0 
L 697 0 
L 697 3053 
L 147 3053 
L 147 3500 
L 697 3500 
L 697 3744 
Q 697 4328 969 4595 
Q 1241 4863 1831 4863 
L 2375 4863 
z
" transform="scale(0.015625)"/>
      <path id="DejaVuSans-6c" d="M 603 4863 
L 1178 4863 
L 1178 0 
L 603 0 
L 603 4863 
z
" transform="scale(0.015625)"/>
     </defs>
     <use xlink:href="#DejaVuSans-57"/>
     <use xlink:href="#DejaVuSans-43" transform="translate(98.876953 0)"/>
     <use xlink:href="#DejaVuSans-43" transform="translate(168.701172 0)"/>
     <use xlink:href="#DejaVuSans-20" transform="translate(238.525391 0)"/>
     <use xlink:href="#DejaVuSans-73" transform="translate(270.3125 0)"/>
     <use xlink:href="#DejaVuSans-69" transform="translate(322.412109 0)"/>
     <use xlink:href="#DejaVuSans-7a" transform="translate(350.195312 0)"/>
     <use xlink:href="#DejaVuSans-65" transform="translate(402.685547 0)"/>
     <use xlink:href="#DejaVuSans-20" transform="translate(464.208984 0)"/>
     <use xlink:href="#DejaVuSans-73" transform="translate(495.996094 0)"/>
     <use xlink:href="#DejaVuSans-77" transform="translate(548.095703 0)"/>
     <use xlink:href="#DejaVuSans-65" transform="translate(629.882812 0)"/>
     <use xlink:href="#DejaVuSans-65" transform="translate(691.40625 0)"/>
     <use xlink:href="#DejaVuSans-70" transform="translate(752.929688 0)"/>
     <use xlink:href="#DejaVuSans-20" transform="translate(816.40625 0)"/>
     <use xlink:href="#DejaVuSans-62" transform="translate(848.193359 0)"/>
     <use xlink:href="#DejaVuSans-79" transform="translate(911.669922 0)"/>
     <use xlink:href="#DejaVuSans-20" transform="translate(970.849609 0)"/>
     <use xlink:href="#DejaVuSans-72" transform="translate(1002.636719 0)"/>
     <use xlink:href="#DejaVuSans-65" transform="translate(1041.5 0)"/>
     <use xlink:href="#DejaVuSans-73" transform="translate(1103.023438 0)"/>
     <use xlink:href="#DejaVuSans-6f" transform="translate(1155.123047 0)"/>
     <use xlink:href="#DejaVuSans-75" transform="translate(1216.304688 0)"/>
     <use xlink:href="#DejaVuSans-72" transform="translate(1279.683594 0)"/>
     <use xlink:href="#DejaVuSans-63" transform="translate(1318.546875 0)"/>
     <use xlink:href="#DejaVuSans-65" transform="translate(1373.527344 0)"/>
     <use xlink:href="#DejaVuSans-20" transform="translate(1435.050781 0)"/>
     <use xlink:href="#DejaVuSans-70" transform="translate(1466.837891 0)"/>
     <use xlink:href="#DejaVuSans-72" transform="translate(1530.314453 0)"/>
     <use xlink:href="#DejaVuSans-6f" transform="translate(1569.177734 0)"/>
     <use xlink:href="#DejaVuSans-66" transform="translate(1630.359375 0)"/>
     <use xlink:href="#DejaVuSans-69" transform="translate(1665.564453 0)"/>
     <use xlink:href="#DejaVuSans-6c" transform="translate(1693.347656 0)"/>
     <use xlink:href="#DejaVuSans-65" transform="translate(1721.130859 0)"/>
    </g>
   </g>
   <g id="legend_1">
    <g id="patch_7">
     <path d="M 391.53794 75.688125 
L 698.94044 75.688125 
Q 700.54044 75.688125 700.54044 74.088125 
L 700.54044 27.918125 
Q 700.54044 26.318125 698.94044 26.318125 
L 391.53794 26.318125 
Q 389.93794 26.318125 389.93794 27.918125 
L 389.93794 74.088125 
Q 389.93794 75.688125 391.53794 75.688125 
z
" style="fill: #ffffff; opacity: 0.8; stroke: #cccccc; stroke-linejoin: miter"/>
    </g>
    <g id="line2d_57">
     <path d="M 393.13794 32.796875 
L 401.13794 32.796875 
L 409.13794 32.796875 
" style="fill: none; stroke: #1f77b4; stroke-width: 1.8; stroke-linecap: square"/>
     <g>
      <use xlink:href="#m17739203f5" x="401.13794" y="32.796875" style="fill: #1f77b4; stroke: #1f77b4"/>
     </g>
    </g>
    <g id="text_10">
     <!-- burst: p=16 g=1 mem=2048MB -->
     <g transform="translate(415.53794 35.596875) scale(0.08 -0.08)">
      <defs>
       <path id="DejaVuSans-3a" d="M 750 794 
L 1409 794 
L 1409 0 
L 750 0 
L 750 794 
z
M 750 3309 
L 1409 3309 
L 1409 2516 
L 750 2516 
L 750 3309 
z
" transform="scale(0.015625)"/>
       <path id="DejaVuSans-3d" d="M 678 2906 
L 4684 2906 
L 4684 2381 
L 678 2381 
L 678 2906 
z
M 678 1631 
L 4684 1631 
L 4684 1100 
L 678 1100 
L 678 1631 
z
" transform="scale(0.015625)"/>
       <path id="DejaVuSans-36" d="M 2113 2584 
Q 1688 2584 1439 2293 
Q 1191 2003 1191 1497 
Q 1191 994 1439 701 
Q 1688 409 2113 409 
Q 2538 409 2786 701 
Q 3034 994 3034 1497 
Q 3034 2003 2786 2293 
Q 2538 2584 2113 2584 
z
M 3366 4563 
L 3366 3988 
Q 3128 4100 2886 4159 
Q 2644 4219 2406 4219 
Q 1781 4219 1451 3797 
Q 1122 3375 1075 2522 
Q 1259 2794 1537 2939 
Q 1816 3084 2150 3084 
Q 2853 3084 3261 2657 
Q 3669 2231 3669 1497 
Q 3669 778 3244 343 
Q 2819 -91 2113 -91 
Q 1303 -91 875 529 
Q 447 1150 447 2328 
Q 447 3434 972 4092 
Q 1497 4750 2381 4750 
Q 2619 4750 2861 4703 
Q 3103 4656 3366 4563 
z
" transform="scale(0.015625)"/>
       <path id="DejaVuSans-67" d="M 2906 1791 
Q 2906 2416 2648 2759 
Q 2391 3103 1925 3103 
Q 1463 3103 1205 2759 
Q 947 2416 947 1791 
Q 947 1169 1205 825 
Q 1463 481 1925 481 
Q 2391 481 2648 825 
Q 2906 1169 2906 1791 
z
M 3481 434 
Q 3481 -459 3084 -895 
Q 2688 -1331 1869 -1331 
Q 1566 -1331 1297 -1286 
Q 1028 -1241 775 -1147 
L 775 -588 
Q 1028 -725 1275 -790 
Q 1522 -856 1778 -856 
Q 2344 -856 2625 -561 
Q 2906 -266 2906 331 
L 2906 616 
Q 2728 306 2450 153 
Q 2172 0 1784 0 
Q 1141 0 747 490 
Q 353 981 353 1791 
Q 353 2603 747 3093 
Q 1141 3584 1784 3584 
Q 2172 3584 2450 3431 
Q 2728 3278 2906 2969 
L 2906 3500 
L 3481 3500 
L 3481 434 
z
" transform="scale(0.015625)"/>
       <path id="DejaVuSans-38" d="M 2034 2216 
Q 1584 2216 1326 1975 
Q 1069 1734 1069 1313 
Q 1069 891 1326 650 
Q 1584 409 2034 409 
Q 2484 409 2743 651 
Q 3003 894 3003 1313 
Q 3003 1734 2745 1975 
Q 2488 2216 2034 2216 
z
M 1403 2484 
Q 997 2584 770 2862 
Q 544 3141 544 3541 
Q 544 4100 942 4425 
Q 1341 4750 2034 4750 
Q 2731 4750 3128 4425 
Q 3525 4100 3525 3541 
Q 3525 3141 3298 2862 
Q 3072 2584 2669 2484 
Q 3125 2378 3379 2068 
Q 3634 1759 3634 1313 
Q 3634 634 3220 271 
Q 2806 -91 2034 -91 
Q 1263 -91 848 271 
Q 434 634 434 1313 
Q 434 1759 690 2068 
Q 947 2378 1403 2484 
z
M 1172 3481 
Q 1172 3119 1398 2916 
Q 1625 2713 2034 2713 
Q 2441 2713 2670 2916 
Q 2900 3119 2900 3481 
Q 2900 3844 2670 4047 
Q 2441 4250 2034 4250 
Q 1625 4250 1398 4047 
Q 1172 3844 1172 3481 
z
" transform="scale(0.015625)"/>
       <path id="DejaVuSans-42" d="M 1259 2228 
L 1259 519 
L 2272 519 
Q 2781 519 3026 730 
Q 3272 941 3272 1375 
Q 3272 1813 3026 2020 
Q 2781 2228 2272 2228 
L 1259 2228 
z
M 1259 4147 
L 1259 2741 
L 2194 2741 
Q 2656 2741 2882 2914 
Q 3109 3088 3109 3444 
Q 3109 3797 2882 3972 
Q 2656 4147 2194 4147 
L 1259 4147 
z
M 628 4666 
L 2241 4666 
Q 2963 4666 3353 4366 
Q 3744 4066 3744 3513 
Q 3744 3084 3544 2831 
Q 3344 2578 2956 2516 
Q 3422 2416 3680 2098 
Q 3938 1781 3938 1306 
Q 3938 681 3513 340 
Q 3088 0 2303 0 
L 628 0 
L 628 4666 
z
" transform="scale(0.015625)"/>
      </defs>
      <use xlink:href="#DejaVuSans-62"/>
      <use xlink:href="#DejaVuSans-75" transform="translate(63.476562 0)"/>
      <use xlink:href="#DejaVuSans-72" transform="translate(126.855469 0)"/>
      <use xlink:href="#DejaVuSans-73" transform="translate(167.96875 0)"/>
      <use xlink:href="#DejaVuSans-74" transform="translate(220.068359 0)"/>
      <use xlink:href="#DejaVuSans-3a" transform="translate(259.277344 0)"/>
      <use xlink:href="#DejaVuSans-20" transform="translate(292.96875 0)"/>
      <use xlink:href="#DejaVuSans-70" transform="translate(324.755859 0)"/>
      <use xlink:href="#DejaVuSans-3d" transform="translate(388.232422 0)"/>
      <use xlink:href="#DejaVuSans-31" transform="translate(472.021484 0)"/>
      <use xlink:href="#DejaVuSans-36" transform="translate(535.644531 0)"/>
      <use xlink:href="#DejaVuSans-20" transform="translate(599.267578 0)"/>
      <use xlink:href="#DejaVuSans-67" transform="translate(631.054688 0)"/>
      <use xlink:href="#DejaVuSans-3d" transform="translate(694.53125 0)"/>
      <use xlink:href="#DejaVuSans-31" transform="translate(778.320312 0)"/>
      <use xlink:href="#DejaVuSans-20" transform="translate(841.943359 0)"/>
      <use xlink:href="#DejaVuSans-6d" transform="translate(873.730469 0)"/>
      <use xlink:href="#DejaVuSans-65" transform="translate(971.142578 0)"/>
      <use xlink:href="#DejaVuSans-6d" transform="translate(1032.666016 0)"/>
      <use xlink:href="#DejaVuSans-3d" transform="translate(1130.078125 0)"/>
      <use xlink:href="#DejaVuSans-32" transform="translate(1213.867188 0)"/>
      <use xlink:href="#DejaVuSans-30" transform="translate(1277.490234 0)"/>
      <use xlink:href="#DejaVuSans-34" transform="translate(1341.113281 0)"/>
      <use xlink:href="#DejaVuSans-38" transform="translate(1404.736328 0)"/>
      <use xlink:href="#DejaVuSans-4d" transform="translate(1468.359375 0)"/>
      <use xlink:href="#DejaVuSans-42" transform="translate(1554.638672 0)"/>
     </g>
    </g>
    <g id="line2d_58">
     <path d="M 393.13794 44.539375 
L 401.13794 44.539375 
L 409.13794 44.539375 
" style="fill: none; stroke: #1f77b4; stroke-width: 1.8; stroke-linecap: square"/>
     <g>
      <use xlink:href="#m17739203f5" x="401.13794" y="44.539375" style="fill: #1f77b4; stroke: #1f77b4"/>
     </g>
    </g>
    <g id="text_11">
     <!-- burst: p=32 g=8 mem=2048MB -->
     <g transform="translate(415.53794 47.339375) scale(0.08 -0.08)">
      <defs>
       <path id="DejaVuSans-33" d="M 2597 2516 
Q 3050 2419 3304 2112 
Q 3559 1806 3559 1356 
Q 3559 666 3084 287 
Q 2609 -91 1734 -91 
Q 1441 -91 1130 -33 
Q 819 25 488 141 
L 488 750 
Q 750 597 1062 519 
Q 1375 441 1716 441 
Q 2309 441 2620 675 
Q 2931 909 2931 1356 
Q 2931 1769 2642 2001 
Q 2353 2234 1838 2234 
L 1294 2234 
L 1294 2753 
L 1863 2753 
Q 2328 2753 2575 2939 
Q 2822 3125 2822 3475 
Q 2822 3834 2567 4026 
Q 2313 4219 1838 4219 
Q 1578 4219 1281 4162 
Q 984 4106 628 3988 
L 628 4550 
Q 988 4650 1302 4700 
Q 1616 4750 1894 4750 
Q 2613 4750 3031 4423 
Q 3450 4097 3450 3541 
Q 3450 3153 3228 2886 
Q 3006 2619 2597 2516 
z
" transform="scale(0.015625)"/>
      </defs>
      <use xlink:href="#DejaVuSans-62"/>
      <use xlink:href="#DejaVuSans-75" transform="translate(63.476562 0)"/>
      <use xlink:href="#DejaVuSans-72" transform="translate(126.855469 0)"/>
      <use xlink:href="#DejaVuSans-73" transform="translate(167.96875 0)"/>
      <use xlink:href="#DejaVuSans-74" transform="translate(220.068359 0)"/>
      <use xlink:href="#DejaVuSans-3a" transform="translate(259.277344 0)"/>
      <use xlink:href="#DejaVuSans-20" transform="translate(292.96875 0)"/>
      <use xlink:href="#DejaVuSans-70" transform="translate(324.755859 0)"/>
      <use xlink:href="#DejaVuSans-3d" transform="translate(388.232422 0)"/>
      <use xlink:href="#DejaVuSans-33" transform="translate(472.021484 0)"/>
      <use xlink:href="#DejaVuSans-32" transform="translate(535.644531 0)"/>
      <use xlink:href="#DejaVuSans-20" transform="translate(599.267578 0)"/>
      <use xlink:href="#DejaVuSans-67" transform="translate(631.054688 0)"/>
      <use xlink:href="#DejaVuSans-3d" transform="translate(694.53125 0)"/>
      <use xlink:href="#DejaVuSans-38" transform="translate(778.320312 0)"/>
      <use xlink:href="#DejaVuSans-20" transform="translate(841.943359 0)"/>
      <use xlink:href="#DejaVuSans-6d" transform="translate(873.730469 0)"/>
      <use xlink:href="#DejaVuSans-65" transform="translate(971.142578 0)"/>
      <use xlink:href="#DejaVuSans-6d" transform="translate(1032.666016 0)"/>
      <use xlink:href="#DejaVuSans-3d" transform="translate(1130.078125 0)"/>
      <use xlink:href="#DejaVuSans-32" transform="translate(1213.867188 0)"/>
      <use xlink:href="#DejaVuSans-30" transform="translate(1277.490234 0)"/>
      <use xlink:href="#DejaVuSans-34" transform="translate(1341.113281 0)"/>
      <use xlink:href="#DejaVuSans-38" transform="translate(1404.736328 0)"/>
      <use xlink:href="#DejaVuSans-4d" transform="translate(1468.359375 0)"/>
      <use xlink:href="#DejaVuSans-42" transform="translate(1554.638672 0)"/>
     </g>
    </g>
    <g id="line2d_59">
     <path d="M 393.13794 56.281875 
L 401.13794 56.281875 
L 409.13794 56.281875 
" style="fill: none; stroke: #1f77b4; stroke-width: 1.8; stroke-linecap: square"/>
     <g>
      <use xlink:href="#m17739203f5" x="401.13794" y="56.281875" style="fill: #1f77b4; stroke: #1f77b4"/>
     </g>
    </g>
    <g id="text_12">
     <!-- burst: p=4 g=1 mem=4096MB -->
     <g transform="translate(415.53794 59.081875) scale(0.08 -0.08)">
      <defs>
       <path id="DejaVuSans-39" d="M 703 97 
L 703 672 
Q 941 559 1184 500 
Q 1428 441 1663 441 
Q 2288 441 2617 861 
Q 2947 1281 2994 2138 
Q 2813 1869 2534 1725 
Q 2256 1581 1919 1581 
Q 1219 1581 811 2004 
Q 403 2428 403 3163 
Q 403 3881 828 4315 
Q 1253 4750 1959 4750 
Q 2769 4750 3195 4129 
Q 3622 3509 3622 2328 
Q 3622 1225 3098 567 
Q 2575 -91 1691 -91 
Q 1453 -91 1209 -44 
Q 966 3 703 97 
z
M 1959 2075 
Q 2384 2075 2632 2365 
Q 2881 2656 2881 3163 
Q 2881 3666 2632 3958 
Q 2384 4250 1959 4250 
Q 1534 4250 1286 3958 
Q 1038 3666 1038 3163 
Q 1038 2656 1286 2365 
Q 1534 2075 1959 2075 
z
" transform="scale(0.015625)"/>
      </defs>
      <use xlink:href="#DejaVuSans-62"/>
      <use xlink:href="#DejaVuSans-75" transform="translate(63.476562 0)"/>
      <use xlink:href="#DejaVuSans-72" transform="translate(126.855469 0)"/>
      <use xlink:href="#DejaVuSans-73" transform="translate(167.96875 0)"/>
      <use xlink:href="#DejaVuSans-74" transform="translate(220.068359 0)"/>
      <use xlink:href="#DejaVuSans-3a" transform="translate(259.277344 0)"/>
      <use xlink:href="#DejaVuSans-20" transform="translate(292.96875 0)"/>
      <use xlink:href="#DejaVuSans-70" transform="translate(324.755859 0)"/>
      <use xlink:href="#DejaVuSans-3d" transform="translate(388.232422 0)"/>
      <use xlink:href="#DejaVuSans-34" transform="translate(472.021484 0)"/>
      <use xlink:href="#DejaVuSans-20" transform="translate(535.644531 0)"/>
      <use xlink:href="#DejaVuSans-67" transform="translate(567.431641 0)"/>
      <use xlink:href="#DejaVuSans-3d" transform="translate(630.908203 0)"/>
      <use xlink:href="#DejaVuSans-31" transform="translate(714.697266 0)"/>
      <use xlink:href="#DejaVuSans-20" transform="translate(778.320312 0)"/>
      <use xlink:href="#DejaVuSans-6d" transform="translate(810.107422 0)"/>
      <use xlink:href="#DejaVuSans-65" transform="translate(907.519531 0)"/>
      <use xlink:href="#DejaVuSans-6d" transform="translate(969.042969 0)"/>
      <use xlink:href="#DejaVuSans-3d" transform="translate(1066.455078 0)"/>
      <use xlink:href="#DejaVuSans-34" transform="translate(1150.244141 0)"/>
      <use xlink:href="#DejaVuSans-30" transform="translate(1213.867188 0)"/>
      <use xlink:href="#DejaVuSans-39" transform="translate(1277.490234 0)"/>
      <use xlink:href="#DejaVuSans-36" transform="translate(1341.113281 0)"/>
      <use xlink:href="#DejaVuSans-4d" transform="translate(1404.736328 0)"/>
      <use xlink:href="#DejaVuSans-42" transform="translate(1491.015625 0)"/>
     </g>
    </g>
    <g id="line2d_60">
     <path d="M 393.13794 68.024375 
L 401.13794 68.024375 
L 409.13794 68.024375 
" style="fill: none; stroke: #1f77b4; stroke-width: 1.8; stroke-linecap: square"/>
     <g>
      <use xlink:href="#m17739203f5" x="401.13794" y="68.024375" style="fill: #1f77b4; stroke: #1f77b4"/>
     </g>
    </g>
    <g id="text_13">
     <!-- burst: p=8 g=1 mem=3072MB -->
     <g transform="translate(415.53794 70.824375) scale(0.08 -0.08)">
      <defs>
       <path id="DejaVuSans-37" d="M 525 4666 
L 3525 4666 
L 3525 4397 
L 1831 0 
L 1172 0 
L 2766 4134 
L 525 4134 
L 525 4666 
z
" transform="scale(0.015625)"/>
      </defs>
      <use xlink:href="#DejaVuSans-62"/>
      <use xlink:href="#DejaVuSans-75" transform="translate(63.476562 0)"/>
      <use xlink:href="#DejaVuSans-72" transform="translate(126.855469 0)"/>
      <use xlink:href="#DejaVuSans-73" transform="translate(167.96875 0)"/>
      <use xlink:href="#DejaVuSans-74" transform="translate(220.068359 0)"/>
      <use xlink:href="#DejaVuSans-3a" transform="translate(259.277344 0)"/>
      <use xlink:href="#DejaVuSans-20" transform="translate(292.96875 0)"/>
      <use xlink:href="#DejaVuSans-70" transform="translate(324.755859 0)"/>
      <use xlink:href="#DejaVuSans-3d" transform="translate(388.232422 0)"/>
      <use xlink:href="#DejaVuSans-38" transform="translate(472.021484 0)"/>
      <use xlink:href="#DejaVuSans-20" transform="translate(535.644531 0)"/>
      <use xlink:href="#DejaVuSans-67" transform="translate(567.431641 0)"/>
      <use xlink:href="#DejaVuSans-3d" transform="translate(630.908203 0)"/>
      <use xlink:href="#DejaVuSans-31" transform="translate(714.697266 0)"/>
      <use xlink:href="#DejaVuSans-20" transform="translate(778.320312 0)"/>
      <use xlink:href="#DejaVuSans-6d" transform="translate(810.107422 0)"/>
      <use xlink:href="#DejaVuSans-65" transform="translate(907.519531 0)"/>
      <use xlink:href="#DejaVuSans-6d" transform="translate(969.042969 0)"/>
      <use xlink:href="#DejaVuSans-3d" transform="translate(1066.455078 0)"/>
      <use xlink:href="#DejaVuSans-33" transform="translate(1150.244141 0)"/>
      <use xlink:href="#DejaVuSans-30" transform="translate(1213.867188 0)"/>
      <use xlink:href="#DejaVuSans-37" transform="translate(1277.490234 0)"/>
      <use xlink:href="#DejaVuSans-32" transform="translate(1341.113281 0)"/>
      <use xlink:href="#DejaVuSans-4d" transform="translate(1404.736328 0)"/>
      <use xlink:href="#DejaVuSans-42" transform="translate(1491.015625 0)"/>
     </g>
    </g>
    <g id="line2d_61">
     <path d="M 561.39919 32.796875 
L 569.39919 32.796875 
L 577.39919 32.796875 
" style="fill: none; stroke-dasharray: 6.66,2.88; stroke-dashoffset: 0; stroke: #d62728; stroke-width: 1.8"/>
     <g>
      <use xlink:href="#m7be30336fc" x="569.39919" y="32.796875" style="fill: #d62728; stroke: #d62728"/>
     </g>
    </g>
    <g id="text_14">
     <!-- spark: p=16 e=16 mem=3g -->
     <g transform="translate(583.79919 35.596875) scale(0.08 -0.08)">
      <use xlink:href="#DejaVuSans-73"/>
      <use xlink:href="#DejaVuSans-70" transform="translate(52.099609 0)"/>
      <use xlink:href="#DejaVuSans-61" transform="translate(115.576172 0)"/>
      <use xlink:href="#DejaVuSans-72" transform="translate(176.855469 0)"/>
      <use xlink:href="#DejaVuSans-6b" transform="translate(217.96875 0)"/>
      <use xlink:href="#DejaVuSans-3a" transform="translate(275.878906 0)"/>
      <use xlink:href="#DejaVuSans-20" transform="translate(309.570312 0)"/>
      <use xlink:href="#DejaVuSans-70" transform="translate(341.357422 0)"/>
      <use xlink:href="#DejaVuSans-3d" transform="translate(404.833984 0)"/>
      <use xlink:href="#DejaVuSans-31" transform="translate(488.623047 0)"/>
      <use xlink:href="#DejaVuSans-36" transform="translate(552.246094 0)"/>
      <use xlink:href="#DejaVuSans-20" transform="translate(615.869141 0)"/>
      <use xlink:href="#DejaVuSans-65" transform="translate(647.65625 0)"/>
      <use xlink:href="#DejaVuSans-3d" transform="translate(709.179688 0)"/>
      <use xlink:href="#DejaVuSans-31" transform="translate(792.96875 0)"/>
      <use xlink:href="#DejaVuSans-36" transform="translate(856.591797 0)"/>
      <use xlink:href="#DejaVuSans-20" transform="translate(920.214844 0)"/>
      <use xlink:href="#DejaVuSans-6d" transform="translate(952.001953 0)"/>
      <use xlink:href="#DejaVuSans-65" transform="translate(1049.414062 0)"/>
      <use xlink:href="#DejaVuSans-6d" transform="translate(1110.9375 0)"/>
      <use xlink:href="#DejaVuSans-3d" transform="translate(1208.349609 0)"/>
      <use xlink:href="#DejaVuSans-33" transform="translate(1292.138672 0)"/>
      <use xlink:href="#DejaVuSans-67" transform="translate(1355.761719 0)"/>
     </g>
    </g>
    <g id="line2d_62">
     <path d="M 561.39919 44.539375 
L 569.39919 44.539375 
L 577.39919 44.539375 
" style="fill: none; stroke-dasharray: 6.66,2.88; stroke-dashoffset: 0; stroke: #d62728; stroke-width: 1.8"/>
     <g>
      <use xlink:href="#m7be30336fc" x="569.39919" y="44.539375" style="fill: #d62728; stroke: #d62728"/>
     </g>
    </g>
    <g id="text_15">
     <!-- spark: p=32 e=16 mem=3g -->
     <g transform="translate(583.79919 47.339375) scale(0.08 -0.08)">
      <use xlink:href="#DejaVuSans-73"/>
      <use xlink:href="#DejaVuSans-70" transform="translate(52.099609 0)"/>
      <use xlink:href="#DejaVuSans-61" transform="translate(115.576172 0)"/>
      <use xlink:href="#DejaVuSans-72" transform="translate(176.855469 0)"/>
      <use xlink:href="#DejaVuSans-6b" transform="translate(217.96875 0)"/>
      <use xlink:href="#DejaVuSans-3a" transform="translate(275.878906 0)"/>
      <use xlink:href="#DejaVuSans-20" transform="translate(309.570312 0)"/>
      <use xlink:href="#DejaVuSans-70" transform="translate(341.357422 0)"/>
      <use xlink:href="#DejaVuSans-3d" transform="translate(404.833984 0)"/>
      <use xlink:href="#DejaVuSans-33" transform="translate(488.623047 0)"/>
      <use xlink:href="#DejaVuSans-32" transform="translate(552.246094 0)"/>
      <use xlink:href="#DejaVuSans-20" transform="translate(615.869141 0)"/>
      <use xlink:href="#DejaVuSans-65" transform="translate(647.65625 0)"/>
      <use xlink:href="#DejaVuSans-3d" transform="translate(709.179688 0)"/>
      <use xlink:href="#DejaVuSans-31" transform="translate(792.96875 0)"/>
      <use xlink:href="#DejaVuSans-36" transform="translate(856.591797 0)"/>
      <use xlink:href="#DejaVuSans-20" transform="translate(920.214844 0)"/>
      <use xlink:href="#DejaVuSans-6d" transform="translate(952.001953 0)"/>
      <use xlink:href="#DejaVuSans-65" transform="translate(1049.414062 0)"/>
      <use xlink:href="#DejaVuSans-6d" transform="translate(1110.9375 0)"/>
      <use xlink:href="#DejaVuSans-3d" transform="translate(1208.349609 0)"/>
      <use xlink:href="#DejaVuSans-33" transform="translate(1292.138672 0)"/>
      <use xlink:href="#DejaVuSans-67" transform="translate(1355.761719 0)"/>
     </g>
    </g>
    <g id="line2d_63">
     <path d="M 561.39919 56.281875 
L 569.39919 56.281875 
L 577.39919 56.281875 
" style="fill: none; stroke-dasharray: 6.66,2.88; stroke-dashoffset: 0; stroke: #d62728; stroke-width: 1.8"/>
     <g>
      <use xlink:href="#m7be30336fc" x="569.39919" y="56.281875" style="fill: #d62728; stroke: #d62728"/>
     </g>
    </g>
    <g id="text_16">
     <!-- spark: p=4 e=4 mem=6g -->
     <g transform="translate(583.79919 59.081875) scale(0.08 -0.08)">
      <use xlink:href="#DejaVuSans-73"/>
      <use xlink:href="#DejaVuSans-70" transform="translate(52.099609 0)"/>
      <use xlink:href="#DejaVuSans-61" transform="translate(115.576172 0)"/>
      <use xlink:href="#DejaVuSans-72" transform="translate(176.855469 0)"/>
      <use xlink:href="#DejaVuSans-6b" transform="translate(217.96875 0)"/>
      <use xlink:href="#DejaVuSans-3a" transform="translate(275.878906 0)"/>
      <use xlink:href="#DejaVuSans-20" transform="translate(309.570312 0)"/>
      <use xlink:href="#DejaVuSans-70" transform="translate(341.357422 0)"/>
      <use xlink:href="#DejaVuSans-3d" transform="translate(404.833984 0)"/>
      <use xlink:href="#DejaVuSans-34" transform="translate(488.623047 0)"/>
      <use xlink:href="#DejaVuSans-20" transform="translate(552.246094 0)"/>
      <use xlink:href="#DejaVuSans-65" transform="translate(584.033203 0)"/>
      <use xlink:href="#DejaVuSans-3d" transform="translate(645.556641 0)"/>
      <use xlink:href="#DejaVuSans-34" transform="translate(729.345703 0)"/>
      <use xlink:href="#DejaVuSans-20" transform="translate(792.96875 0)"/>
      <use xlink:href="#DejaVuSans-6d" transform="translate(824.755859 0)"/>
      <use xlink:href="#DejaVuSans-65" transform="translate(922.167969 0)"/>
      <use xlink:href="#DejaVuSans-6d" transform="translate(983.691406 0)"/>
      <use xlink:href="#DejaVuSans-3d" transform="translate(1081.103516 0)"/>
      <use xlink:href="#DejaVuSans-36" transform="translate(1164.892578 0)"/>
      <use xlink:href="#DejaVuSans-67" transform="translate(1228.515625 0)"/>
     </g>
    </g>
    <g id="line2d_64">
     <path d="M 561.39919 68.024375 
L 569.39919 68.024375 
L 577.39919 68.024375 
" style="fill: none; stroke-dasharray: 6.66,2.88; stroke-dashoffset: 0; stroke: #d62728; stroke-width: 1.8"/>
     <g>
      <use xlink:href="#m7be30336fc" x="569.39919" y="68.024375" style="fill: #d62728; stroke: #d62728"/>
     </g>
    </g>
    <g id="text_17">
     <!-- spark: p=8 e=8 mem=6g -->
     <g transform="translate(583.79919 70.824375) scale(0.08 -0.08)">
      <use xlink:href="#DejaVuSans-73"/>
      <use xlink:href="#DejaVuSans-70" transform="translate(52.099609 0)"/>
      <use xlink:href="#DejaVuSans-61" transform="translate(115.576172 0)"/>
      <use xlink:href="#DejaVuSans-72" transform="translate(176.855469 0)"/>
      <use xlink:href="#DejaVuSans-6b" transform="translate(217.96875 0)"/>
      <use xlink:href="#DejaVuSans-3a" transform="translate(275.878906 0)"/>
      <use xlink:href="#DejaVuSans-20" transform="translate(309.570312 0)"/>
      <use xlink:href="#DejaVuSans-70" transform="translate(341.357422 0)"/>
      <use xlink:href="#DejaVuSans-3d" transform="translate(404.833984 0)"/>
      <use xlink:href="#DejaVuSans-38" transform="translate(488.623047 0)"/>
      <use xlink:href="#DejaVuSans-20" transform="translate(552.246094 0)"/>
      <use xlink:href="#DejaVuSans-65" transform="translate(584.033203 0)"/>
      <use xlink:href="#DejaVuSans-3d" transform="translate(645.556641 0)"/>
      <use xlink:href="#DejaVuSans-38" transform="translate(729.345703 0)"/>
      <use xlink:href="#DejaVuSans-20" transform="translate(792.96875 0)"/>
      <use xlink:href="#DejaVuSans-6d" transform="translate(824.755859 0)"/>
      <use xlink:href="#DejaVuSans-65" transform="translate(922.167969 0)"/>
      <use xlink:href="#DejaVuSans-6d" transform="translate(983.691406 0)"/>
      <use xlink:href="#DejaVuSans-3d" transform="translate(1081.103516 0)"/>
      <use xlink:href="#DejaVuSans-36" transform="translate(1164.892578 0)"/>
      <use xlink:href="#DejaVuSans-67" transform="translate(1228.515625 0)"/>
     </g>
    </g>
   </g>
  </g>
 </g>
 <defs>
  <clipPath id="p3c8a046963">
   <rect x="45.478125" y="22.318125" width="659.062315" height="327.16"/>
  </clipPath>
 </defs>
</svg>
