<?xml version="1.0" encoding="utf-8" standalone="no"?>
<!DOCTYPE svg PUBLIC "-//W3C//DTD SVG 1.1//EN"
  "http://www.w3.org/Graphics/SVG/1.1/DTD/svg11.dtd">
<svg xmlns:xlink="http://www.w3.org/1999/xlink" width="864pt" height="345.6pt" viewBox="0 0 864 345.6" xmlns="http://www.w3.org/2000/svg" version="1.1">
 <metadata>
  <rdf:RDF xmlns:dc="http://purl.org/dc/elements/1.1/" xmlns:cc="http://creativecommons.org/ns#" xmlns:rdf="http://www.w3.org/1999/02/22-rdf-syntax-ns#">
   <cc:Work>
    <dc:type rdf:resource="http://purl.org/dc/dcmitype/StillImage"/>
    <dc:date>2026-03-24T16:27:56.149478</dc:date>
    <dc:format>image/svg+xml</dc:format>
    <dc:creator>
     <cc:Agent>
      <dc:title>Matplotlib v3.10.8, https://matplotlib.org/</dc:title>
     </cc:Agent>
    </dc:creator>
   </cc:Work>
  </rdf:RDF>
 </metadata>
 <defs>
  <style type="text/css">*{stroke-linejoin: round; stroke-linecap: butt}</style>
 </defs>
 <g id="figure_1">
  <g id="patch_1">
   <path d="M 0 345.6 
L 864 345.6 
L 864 0 
L 0 0 
z
" style="fill: #ffffff"/>
  </g>
  <g id="axes_1">
   <g id="patch_2">
    <path d="M 56.28 307.14 
L 433.575 307.14 
L 433.575 25.44 
L 56.28 25.44 
z
" style="fill: #ffffff"/>
   </g>
   <g id="matplotlib.axis_1">
    <g id="xtick_1">
     <g id="line2d_1">
      <path d="M 73.429773 307.14 
L 73.429773 25.44 
" clip-path="url(#p60a96c054a)" style="fill: none; stroke: #cccccc; stroke-width: 0.8; stroke-linecap: round"/>
     </g>
     <g id="line2d_2"/>
     <g id="text_1">
      <!-- 100k -->
      <g style="fill: #262626" transform="translate(62.588366 317.886875) scale(0.1 -0.1)">
       <defs>
        <path id="LiberationSans-31" d="M 488 0 
L 488 478 
L 1609 478 
L 1609 3866 
L 616 3156 
L 616 3688 
L 1656 4403 
L 2175 4403 
L 2175 478 
L 3247 478 
L 3247 0 
L 488 0 
z
" transform="scale(0.015625)"/>
        <path id="LiberationSans-30" d="M 3309 2203 
Q 3309 1100 2920 518 
Q 2531 -63 1772 -63 
Q 1013 -63 631 515 
Q 250 1094 250 2203 
Q 250 3338 620 3903 
Q 991 4469 1791 4469 
Q 2569 4469 2939 3897 
Q 3309 3325 3309 2203 
z
M 2738 2203 
Q 2738 3156 2517 3584 
Q 2297 4013 1791 4013 
Q 1272 4013 1045 3591 
Q 819 3169 819 2203 
Q 819 1266 1048 831 
Q 1278 397 1778 397 
Q 2275 397 2506 840 
Q 2738 1284 2738 2203 
z
" transform="scale(0.015625)"/>
        <path id="LiberationSans-6b" d="M 2550 0 
L 1406 1544 
L 994 1203 
L 994 0 
L 431 0 
L 431 4638 
L 994 4638 
L 994 1741 
L 2478 3381 
L 3138 3381 
L 1766 1928 
L 3209 0 
L 2550 0 
z
" transform="scale(0.015625)"/>
       </defs>
       <use xlink:href="#LiberationSans-31"/>
       <use xlink:href="#LiberationSans-30" transform="translate(55.615234 0)"/>
       <use xlink:href="#LiberationSans-30" transform="translate(111.230469 0)"/>
       <use xlink:href="#LiberationSans-6b" transform="translate(166.845703 0)"/>
      </g>
     </g>
    </g>
    <g id="xtick_2">
     <g id="line2d_3">
      <path d="M 159.178636 307.14 
L 159.178636 25.44 
" clip-path="url(#p60a96c054a)" style="fill: none; stroke: #cccccc; stroke-width: 0.8; stroke-linecap: round"/>
     </g>
     <g id="line2d_4"/>
     <g id="text_2">
      <!-- 500k -->
      <g style="fill: #262626" transform="translate(148.33723 317.886875) scale(0.1 -0.1)">
       <defs>
        <path id="LiberationSans-35" d="M 3291 1434 
Q 3291 738 2877 337 
Q 2463 -63 1728 -63 
Q 1113 -63 734 206 
Q 356 475 256 984 
L 825 1050 
Q 1003 397 1741 397 
Q 2194 397 2450 670 
Q 2706 944 2706 1422 
Q 2706 1838 2448 2094 
Q 2191 2350 1753 2350 
Q 1525 2350 1328 2278 
Q 1131 2206 934 2034 
L 384 2034 
L 531 4403 
L 3034 4403 
L 3034 3925 
L 1044 3925 
L 959 2528 
Q 1325 2809 1869 2809 
Q 2519 2809 2905 2428 
Q 3291 2047 3291 1434 
z
" transform="scale(0.015625)"/>
       </defs>
       <use xlink:href="#LiberationSans-35"/>
       <use xlink:href="#LiberationSans-30" transform="translate(55.615234 0)"/>
       <use xlink:href="#LiberationSans-30" transform="translate(111.230469 0)"/>
       <use xlink:href="#LiberationSans-6b" transform="translate(166.845703 0)"/>
      </g>
     </g>
    </g>
    <g id="xtick_3">
     <g id="line2d_5">
      <path d="M 244.9275 307.14 
L 244.9275 25.44 
" clip-path="url(#p60a96c054a)" style="fill: none; stroke: #cccccc; stroke-width: 0.8; stroke-linecap: round"/>
     </g>
     <g id="line2d_6"/>
     <g id="text_3">
      <!-- 1.0M -->
      <g style="fill: #262626" transform="translate(233.812656 317.886875) scale(0.1 -0.1)">
       <defs>
        <path id="LiberationSans-2e" d="M 584 0 
L 584 684 
L 1194 684 
L 1194 0 
L 584 0 
z
" transform="scale(0.015625)"/>
        <path id="LiberationSans-4d" d="M 4269 0 
L 4269 2938 
Q 4269 3425 4297 3875 
Q 4144 3316 4022 3000 
L 2884 0 
L 2466 0 
L 1313 3000 
L 1138 3531 
L 1034 3875 
L 1044 3528 
L 1056 2938 
L 1056 0 
L 525 0 
L 525 4403 
L 1309 4403 
L 2481 1350 
Q 2544 1166 2601 955 
Q 2659 744 2678 650 
Q 2703 775 2783 1029 
Q 2863 1284 2891 1350 
L 4041 4403 
L 4806 4403 
L 4806 0 
L 4269 0 
z
" transform="scale(0.015625)"/>
       </defs>
       <use xlink:href="#LiberationSans-31"/>
       <use xlink:href="#LiberationSans-2e" transform="translate(55.615234 0)"/>
       <use xlink:href="#LiberationSans-30" transform="translate(83.398438 0)"/>
       <use xlink:href="#LiberationSans-4d" transform="translate(139.013672 0)"/>
      </g>
     </g>
    </g>
    <g id="xtick_4">
     <g id="line2d_7">
      <path d="M 330.676364 307.14 
L 330.676364 25.44 
" clip-path="url(#p60a96c054a)" style="fill: none; stroke: #cccccc; stroke-width: 0.8; stroke-linecap: round"/>
     </g>
     <g id="line2d_8"/>
     <g id="text_4">
      <!-- 2.0M -->
      <g style="fill: #262626" transform="translate(319.56152 317.886875) scale(0.1 -0.1)">
       <defs>
        <path id="LiberationSans-32" d="M 322 0 
L 322 397 
Q 481 763 711 1042 
Q 941 1322 1194 1548 
Q 1447 1775 1695 1969 
Q 1944 2163 2144 2356 
Q 2344 2550 2467 2762 
Q 2591 2975 2591 3244 
Q 2591 3606 2378 3806 
Q 2166 4006 1788 4006 
Q 1428 4006 1195 3811 
Q 963 3616 922 3263 
L 347 3316 
Q 409 3844 795 4156 
Q 1181 4469 1788 4469 
Q 2453 4469 2811 4155 
Q 3169 3841 3169 3263 
Q 3169 3006 3051 2753 
Q 2934 2500 2703 2247 
Q 2472 1994 1819 1463 
Q 1459 1169 1246 933 
Q 1034 697 941 478 
L 3238 478 
L 3238 0 
L 322 0 
z
" transform="scale(0.015625)"/>
       </defs>
       <use xlink:href="#LiberationSans-32"/>
       <use xlink:href="#LiberationSans-2e" transform="translate(55.615234 0)"/>
       <use xlink:href="#LiberationSans-30" transform="translate(83.398438 0)"/>
       <use xlink:href="#LiberationSans-4d" transform="translate(139.013672 0)"/>
      </g>
     </g>
    </g>
    <g id="xtick_5">
     <g id="line2d_9">
      <path d="M 416.425227 307.14 
L 416.425227 25.44 
" clip-path="url(#p60a96c054a)" style="fill: none; stroke: #cccccc; stroke-width: 0.8; stroke-linecap: round"/>
     </g>
     <g id="line2d_10"/>
     <g id="text_5">
      <!-- 3.0M -->
      <g style="fill: #262626" transform="translate(405.310384 317.886875) scale(0.1 -0.1)">
       <defs>
        <path id="LiberationSans-33" d="M 3278 1216 
Q 3278 606 2890 271 
Q 2503 -63 1784 -63 
Q 1116 -63 717 239 
Q 319 541 244 1131 
L 825 1184 
Q 938 403 1784 403 
Q 2209 403 2451 612 
Q 2694 822 2694 1234 
Q 2694 1594 2417 1795 
Q 2141 1997 1619 1997 
L 1300 1997 
L 1300 2484 
L 1606 2484 
Q 2069 2484 2323 2686 
Q 2578 2888 2578 3244 
Q 2578 3597 2370 3801 
Q 2163 4006 1753 4006 
Q 1381 4006 1151 3815 
Q 922 3625 884 3278 
L 319 3322 
Q 381 3863 767 4166 
Q 1153 4469 1759 4469 
Q 2422 4469 2789 4161 
Q 3156 3853 3156 3303 
Q 3156 2881 2920 2617 
Q 2684 2353 2234 2259 
L 2234 2247 
Q 2728 2194 3003 1916 
Q 3278 1638 3278 1216 
z
" transform="scale(0.015625)"/>
       </defs>
       <use xlink:href="#LiberationSans-33"/>
       <use xlink:href="#LiberationSans-2e" transform="translate(55.615234 0)"/>
       <use xlink:href="#LiberationSans-30" transform="translate(83.398438 0)"/>
       <use xlink:href="#LiberationSans-4d" transform="translate(139.013672 0)"/>
      </g>
     </g>
    </g>
    <g id="text_6">
     <!-- Nodos -->
     <g style="fill: #262626" transform="translate(230.475156 331.20875) scale(0.1 -0.1)">
      <defs>
       <path id="LiberationSans-4e" d="M 3381 0 
L 1025 3750 
L 1041 3447 
L 1056 2925 
L 1056 0 
L 525 0 
L 525 4403 
L 1219 4403 
L 3600 628 
Q 3563 1241 3563 1516 
L 3563 4403 
L 4100 4403 
L 4100 0 
L 3381 0 
z
" transform="scale(0.015625)"/>
       <path id="LiberationSans-6f" d="M 3291 1694 
Q 3291 806 2900 371 
Q 2509 -63 1766 -63 
Q 1025 -63 647 389 
Q 269 841 269 1694 
Q 269 3444 1784 3444 
Q 2559 3444 2925 3017 
Q 3291 2591 3291 1694 
z
M 2700 1694 
Q 2700 2394 2492 2711 
Q 2284 3028 1794 3028 
Q 1300 3028 1079 2704 
Q 859 2381 859 1694 
Q 859 1025 1076 689 
Q 1294 353 1759 353 
Q 2266 353 2483 678 
Q 2700 1003 2700 1694 
z
" transform="scale(0.015625)"/>
       <path id="LiberationSans-64" d="M 2566 544 
Q 2409 219 2151 78 
Q 1894 -63 1513 -63 
Q 872 -63 570 368 
Q 269 800 269 1675 
Q 269 3444 1513 3444 
Q 1897 3444 2153 3303 
Q 2409 3163 2566 2856 
L 2572 2856 
L 2566 3234 
L 2566 4638 
L 3128 4638 
L 3128 697 
Q 3128 169 3147 0 
L 2609 0 
Q 2600 50 2589 231 
Q 2578 413 2578 544 
L 2566 544 
z
M 859 1694 
Q 859 984 1046 678 
Q 1234 372 1656 372 
Q 2134 372 2350 703 
Q 2566 1034 2566 1731 
Q 2566 2403 2350 2715 
Q 2134 3028 1663 3028 
Q 1238 3028 1048 2714 
Q 859 2400 859 1694 
z
" transform="scale(0.015625)"/>
       <path id="LiberationSans-73" d="M 2969 934 
Q 2969 456 2608 196 
Q 2247 -63 1597 -63 
Q 966 -63 623 145 
Q 281 353 178 794 
L 675 891 
Q 747 619 972 492 
Q 1197 366 1597 366 
Q 2025 366 2223 497 
Q 2422 628 2422 891 
Q 2422 1091 2284 1216 
Q 2147 1341 1841 1422 
L 1438 1528 
Q 953 1653 748 1773 
Q 544 1894 428 2066 
Q 313 2238 313 2488 
Q 313 2950 642 3192 
Q 972 3434 1603 3434 
Q 2163 3434 2492 3237 
Q 2822 3041 2909 2606 
L 2403 2544 
Q 2356 2769 2151 2889 
Q 1947 3009 1603 3009 
Q 1222 3009 1040 2893 
Q 859 2778 859 2544 
Q 859 2400 934 2306 
Q 1009 2213 1156 2147 
Q 1303 2081 1775 1966 
Q 2222 1853 2419 1758 
Q 2616 1663 2730 1547 
Q 2844 1431 2906 1279 
Q 2969 1128 2969 934 
z
" transform="scale(0.015625)"/>
      </defs>
      <use xlink:href="#LiberationSans-4e"/>
      <use xlink:href="#LiberationSans-6f" transform="translate(72.216797 0)"/>
      <use xlink:href="#LiberationSans-64" transform="translate(127.832031 0)"/>
      <use xlink:href="#LiberationSans-6f" transform="translate(183.447266 0)"/>
      <use xlink:href="#LiberationSans-73" transform="translate(239.0625 0)"/>
     </g>
    </g>
   </g>
   <g id="matplotlib.axis_2">
    <g id="ytick_1">
     <g id="line2d_11">
      <path d="M 56.28 295.982396 
L 433.575 295.982396 
" clip-path="url(#p60a96c054a)" style="fill: none; stroke: #cccccc; stroke-width: 0.8; stroke-linecap: round"/>
     </g>
     <g id="line2d_12"/>
     <g id="text_7">
      <!-- 0 -->
      <g style="fill: #262626" transform="translate(47.219062 299.605834) scale(0.1 -0.1)">
       <use xlink:href="#LiberationSans-30"/>
      </g>
     </g>
    </g>
    <g id="ytick_2">
     <g id="line2d_13">
      <path d="M 56.28 261.884224 
L 433.575 261.884224 
" clip-path="url(#p60a96c054a)" style="fill: none; stroke: #cccccc; stroke-width: 0.8; stroke-linecap: round"/>
     </g>
     <g id="line2d_14"/>
     <g id="text_8">
      <!-- 2000 -->
      <g style="fill: #262626" transform="translate(30.53625 265.507662) scale(0.1 -0.1)">
       <use xlink:href="#LiberationSans-32"/>
       <use xlink:href="#LiberationSans-30" transform="translate(55.615234 0)"/>
       <use xlink:href="#LiberationSans-30" transform="translate(111.230469 0)"/>
       <use xlink:href="#LiberationSans-30" transform="translate(166.845703 0)"/>
      </g>
     </g>
    </g>
    <g id="ytick_3">
     <g id="line2d_15">
      <path d="M 56.28 227.786053 
L 433.575 227.786053 
" clip-path="url(#p60a96c054a)" style="fill: none; stroke: #cccccc; stroke-width: 0.8; stroke-linecap: round"/>
     </g>
     <g id="line2d_16"/>
     <g id="text_9">
      <!-- 4000 -->
      <g style="fill: #262626" transform="translate(30.53625 231.40949) scale(0.1 -0.1)">
       <defs>
        <path id="LiberationSans-34" d="M 2753 997 
L 2753 0 
L 2222 0 
L 2222 997 
L 147 997 
L 147 1434 
L 2163 4403 
L 2753 4403 
L 2753 1441 
L 3372 1441 
L 3372 997 
L 2753 997 
z
M 2222 3769 
Q 2216 3750 2134 3603 
Q 2053 3456 2013 3397 
L 884 1734 
L 716 1503 
L 666 1441 
L 2222 1441 
L 2222 3769 
z
" transform="scale(0.015625)"/>
       </defs>
       <use xlink:href="#LiberationSans-34"/>
       <use xlink:href="#LiberationSans-30" transform="translate(55.615234 0)"/>
       <use xlink:href="#LiberationSans-30" transform="translate(111.230469 0)"/>
       <use xlink:href="#LiberationSans-30" transform="translate(166.845703 0)"/>
      </g>
     </g>
    </g>
    <g id="ytick_4">
     <g id="line2d_17">
      <path d="M 56.28 193.687881 
L 433.575 193.687881 
" clip-path="url(#p60a96c054a)" style="fill: none; stroke: #cccccc; stroke-width: 0.8; stroke-linecap: round"/>
     </g>
     <g id="line2d_18"/>
     <g id="text_10">
      <!-- 6000 -->
      <g style="fill: #262626" transform="translate(30.53625 197.311318) scale(0.1 -0.1)">
       <defs>
        <path id="LiberationSans-36" d="M 3278 1441 
Q 3278 744 2900 340 
Q 2522 -63 1856 -63 
Q 1113 -63 719 490 
Q 325 1044 325 2100 
Q 325 3244 734 3856 
Q 1144 4469 1900 4469 
Q 2897 4469 3156 3572 
L 2619 3475 
Q 2453 4013 1894 4013 
Q 1413 4013 1148 3564 
Q 884 3116 884 2266 
Q 1038 2550 1316 2698 
Q 1594 2847 1953 2847 
Q 2563 2847 2920 2465 
Q 3278 2084 3278 1441 
z
M 2706 1416 
Q 2706 1894 2472 2153 
Q 2238 2413 1819 2413 
Q 1425 2413 1183 2183 
Q 941 1953 941 1550 
Q 941 1041 1192 716 
Q 1444 391 1838 391 
Q 2244 391 2475 664 
Q 2706 938 2706 1416 
z
" transform="scale(0.015625)"/>
       </defs>
       <use xlink:href="#LiberationSans-36"/>
       <use xlink:href="#LiberationSans-30" transform="translate(55.615234 0)"/>
       <use xlink:href="#LiberationSans-30" transform="translate(111.230469 0)"/>
       <use xlink:href="#LiberationSans-30" transform="translate(166.845703 0)"/>
      </g>
     </g>
    </g>
    <g id="ytick_5">
     <g id="line2d_19">
      <path d="M 56.28 159.589709 
L 433.575 159.589709 
" clip-path="url(#p60a96c054a)" style="fill: none; stroke: #cccccc; stroke-width: 0.8; stroke-linecap: round"/>
     </g>
     <g id="line2d_20"/>
     <g id="text_11">
      <!-- 8000 -->
      <g style="fill: #262626" transform="translate(30.53625 163.213147) scale(0.1 -0.1)">
       <defs>
        <path id="LiberationSans-38" d="M 3281 1228 
Q 3281 619 2893 278 
Q 2506 -63 1781 -63 
Q 1075 -63 676 271 
Q 278 606 278 1222 
Q 278 1653 525 1947 
Q 772 2241 1156 2303 
L 1156 2316 
Q 797 2400 589 2681 
Q 381 2963 381 3341 
Q 381 3844 757 4156 
Q 1134 4469 1769 4469 
Q 2419 4469 2795 4162 
Q 3172 3856 3172 3334 
Q 3172 2956 2962 2675 
Q 2753 2394 2391 2322 
L 2391 2309 
Q 2813 2241 3047 1952 
Q 3281 1663 3281 1228 
z
M 2588 3303 
Q 2588 4050 1769 4050 
Q 1372 4050 1164 3862 
Q 956 3675 956 3303 
Q 956 2925 1170 2726 
Q 1384 2528 1775 2528 
Q 2172 2528 2380 2711 
Q 2588 2894 2588 3303 
z
M 2697 1281 
Q 2697 1691 2453 1898 
Q 2209 2106 1769 2106 
Q 1341 2106 1100 1882 
Q 859 1659 859 1269 
Q 859 359 1788 359 
Q 2247 359 2472 579 
Q 2697 800 2697 1281 
z
" transform="scale(0.015625)"/>
       </defs>
       <use xlink:href="#LiberationSans-38"/>
       <use xlink:href="#LiberationSans-30" transform="translate(55.615234 0)"/>
       <use xlink:href="#LiberationSans-30" transform="translate(111.230469 0)"/>
       <use xlink:href="#LiberationSans-30" transform="translate(166.845703 0)"/>
      </g>
     </g>
    </g>
    <g id="ytick_6">
     <g id="line2d_21">
      <path d="M 56.28 125.491538 
L 433.575 125.491538 
" clip-path="url(#p60a96c054a)" style="fill: none; stroke: #cccccc; stroke-width: 0.8; stroke-linecap: round"/>
     </g>
     <g id="line2d_22"/>
     <g id="text_12">
      <!-- 10000 -->
      <g style="fill: #262626" transform="translate(24.975312 129.114975) scale(0.1 -0.1)">
       <use xlink:href="#LiberationSans-31"/>
       <use xlink:href="#LiberationSans-30" transform="translate(55.615234 0)"/>
       <use xlink:href="#LiberationSans-30" transform="translate(111.230469 0)"/>
       <use xlink:href="#LiberationSans-30" transform="translate(166.845703 0)"/>
       <use xlink:href="#LiberationSans-30" transform="translate(222.460938 0)"/>
      </g>
     </g>
    </g>
    <g id="ytick_7">
     <g id="line2d_23">
      <path d="M 56.28 91.393366 
L 433.575 91.393366 
" clip-path="url(#p60a96c054a)" style="fill: none; stroke: #cccccc; stroke-width: 0.8; stroke-linecap: round"/>
     </g>
     <g id="line2d_24"/>
     <g id="text_13">
      <!-- 12000 -->
      <g style="fill: #262626" transform="translate(24.975312 95.016803) scale(0.1 -0.1)">
       <use xlink:href="#LiberationSans-31"/>
       <use xlink:href="#LiberationSans-32" transform="translate(55.615234 0)"/>
       <use xlink:href="#LiberationSans-30" transform="translate(111.230469 0)"/>
       <use xlink:href="#LiberationSans-30" transform="translate(166.845703 0)"/>
       <use xlink:href="#LiberationSans-30" transform="translate(222.460938 0)"/>
      </g>
     </g>
    </g>
    <g id="ytick_8">
     <g id="line2d_25">
      <path d="M 56.28 57.295194 
L 433.575 57.295194 
" clip-path="url(#p60a96c054a)" style="fill: none; stroke: #cccccc; stroke-width: 0.8; stroke-linecap: round"/>
     </g>
     <g id="line2d_26"/>
     <g id="text_14">
      <!-- 14000 -->
      <g style="fill: #262626" transform="translate(24.975312 60.918632) scale(0.1 -0.1)">
       <use xlink:href="#LiberationSans-31"/>
       <use xlink:href="#LiberationSans-34" transform="translate(55.615234 0)"/>
       <use xlink:href="#LiberationSans-30" transform="translate(111.230469 0)"/>
       <use xlink:href="#LiberationSans-30" transform="translate(166.845703 0)"/>
       <use xlink:href="#LiberationSans-30" transform="translate(222.460938 0)"/>
      </g>
     </g>
    </g>
    <g id="text_15">
     <!-- Tiempo (ms) -->
     <g style="fill: #262626" transform="translate(18.900312 194.157187) rotate(-90) scale(0.1 -0.1)">
      <defs>
       <path id="LiberationSans-54" d="M 2250 3916 
L 2250 0 
L 1656 0 
L 1656 3916 
L 144 3916 
L 144 4403 
L 3763 4403 
L 3763 3916 
L 2250 3916 
z
" transform="scale(0.015625)"/>
       <path id="LiberationSans-69" d="M 428 4100 
L 428 4638 
L 991 4638 
L 991 4100 
L 428 4100 
z
M 428 0 
L 428 3381 
L 991 3381 
L 991 0 
L 428 0 
z
" transform="scale(0.015625)"/>
       <path id="LiberationSans-65" d="M 863 1572 
Q 863 991 1103 675 
Q 1344 359 1806 359 
Q 2172 359 2392 506 
Q 2613 653 2691 878 
L 3184 738 
Q 2881 -63 1806 -63 
Q 1056 -63 664 384 
Q 272 831 272 1713 
Q 272 2550 664 2997 
Q 1056 3444 1784 3444 
Q 3275 3444 3275 1647 
L 3275 1572 
L 863 1572 
z
M 2694 2003 
Q 2647 2538 2422 2783 
Q 2197 3028 1775 3028 
Q 1366 3028 1127 2754 
Q 888 2481 869 2003 
L 2694 2003 
z
" transform="scale(0.015625)"/>
       <path id="LiberationSans-6d" d="M 2400 0 
L 2400 2144 
Q 2400 2634 2265 2821 
Q 2131 3009 1781 3009 
Q 1422 3009 1212 2734 
Q 1003 2459 1003 1959 
L 1003 0 
L 444 0 
L 444 2659 
Q 444 3250 425 3381 
L 956 3381 
Q 959 3366 962 3297 
Q 966 3228 970 3139 
Q 975 3050 981 2803 
L 991 2803 
Q 1172 3163 1406 3303 
Q 1641 3444 1978 3444 
Q 2363 3444 2586 3291 
Q 2809 3138 2897 2803 
L 2906 2803 
Q 3081 3144 3329 3294 
Q 3578 3444 3931 3444 
Q 4444 3444 4676 3166 
Q 4909 2888 4909 2253 
L 4909 0 
L 4353 0 
L 4353 2144 
Q 4353 2634 4218 2821 
Q 4084 3009 3734 3009 
Q 3366 3009 3161 2736 
Q 2956 2463 2956 1959 
L 2956 0 
L 2400 0 
z
" transform="scale(0.015625)"/>
       <path id="LiberationSans-70" d="M 3291 1706 
Q 3291 -63 2047 -63 
Q 1266 -63 997 525 
L 981 525 
Q 994 500 994 -6 
L 994 -1328 
L 431 -1328 
L 431 2691 
Q 431 3213 413 3381 
L 956 3381 
Q 959 3369 965 3292 
Q 972 3216 980 3056 
Q 988 2897 988 2838 
L 1000 2838 
Q 1150 3150 1397 3295 
Q 1644 3441 2047 3441 
Q 2672 3441 2981 3022 
Q 3291 2603 3291 1706 
z
M 2700 1694 
Q 2700 2400 2509 2703 
Q 2319 3006 1903 3006 
Q 1569 3006 1380 2865 
Q 1191 2725 1092 2426 
Q 994 2128 994 1650 
Q 994 984 1206 668 
Q 1419 353 1897 353 
Q 2316 353 2508 661 
Q 2700 969 2700 1694 
z
" transform="scale(0.015625)"/>
       <path id="LiberationSans-20" transform="scale(0.015625)"/>
       <path id="LiberationSans-28" d="M 397 1663 
Q 397 2566 680 3284 
Q 963 4003 1550 4638 
L 2094 4638 
Q 1509 3988 1236 3256 
Q 963 2525 963 1656 
Q 963 791 1233 62 
Q 1503 -666 2094 -1325 
L 1550 -1325 
Q 959 -688 678 32 
Q 397 753 397 1650 
L 397 1663 
z
" transform="scale(0.015625)"/>
       <path id="LiberationSans-29" d="M 1734 1650 
Q 1734 747 1451 28 
Q 1169 -691 581 -1325 
L 38 -1325 
Q 625 -669 897 57 
Q 1169 784 1169 1656 
Q 1169 2528 895 3256 
Q 622 3984 38 4638 
L 581 4638 
Q 1172 4000 1453 3279 
Q 1734 2559 1734 1663 
L 1734 1650 
z
" transform="scale(0.015625)"/>
      </defs>
      <use xlink:href="#LiberationSans-54"/>
      <use xlink:href="#LiberationSans-69" transform="translate(57.333984 0)"/>
      <use xlink:href="#LiberationSans-65" transform="translate(79.550781 0)"/>
      <use xlink:href="#LiberationSans-6d" transform="translate(135.166016 0)"/>
      <use xlink:href="#LiberationSans-70" transform="translate(218.466797 0)"/>
      <use xlink:href="#LiberationSans-6f" transform="translate(274.082031 0)"/>
      <use xlink:href="#LiberationSans-20" transform="translate(329.697266 0)"/>
      <use xlink:href="#LiberationSans-28" transform="translate(357.480469 0)"/>
      <use xlink:href="#LiberationSans-6d" transform="translate(390.78125 0)"/>
      <use xlink:href="#LiberationSans-73" transform="translate(474.082031 0)"/>
      <use xlink:href="#LiberationSans-29" transform="translate(524.082031 0)"/>
     </g>
    </g>
   </g>
   <g id="line2d_27">
    <path d="M 73.429773 294.335455 
L 159.178636 287.379428 
L 244.9275 278.94013 
L 330.676364 257.68674 
L 416.425227 231.468655 
" clip-path="url(#p60a96c054a)" style="fill: none; stroke: #0f766e; stroke-width: 2; stroke-linecap: round"/>
    <defs>
     <path id="m68650ce9a7" d="M 0 3 
C 0.795609 3 1.55874 2.683901 2.12132 2.12132 
C 2.683901 1.55874 3 0.795609 3 0 
C 3 -0.795609 2.683901 -1.55874 2.12132 -2.12132 
C 1.55874 -2.683901 0.795609 -3 0 -3 
C -0.795609 -3 -1.55874 -2.683901 -2.12132 -2.12132 
C -2.683901 -1.55874 -3 -0.795609 -3 0 
C -3 0.795609 -2.683901 1.55874 -2.12132 2.12132 
C -1.55874 2.683901 -0.795609 3 0 3 
z
" style="stroke: #0f766e"/>
    </defs>
    <g clip-path="url(#p60a96c054a)">
     <use xlink:href="#m68650ce9a7" x="73.429773" y="294.335455" style="fill: #0f766e; stroke: #0f766e"/>
     <use xlink:href="#m68650ce9a7" x="159.178636" y="287.379428" style="fill: #0f766e; stroke: #0f766e"/>
     <use xlink:href="#m68650ce9a7" x="244.9275" y="278.94013" style="fill: #0f766e; stroke: #0f766e"/>
     <use xlink:href="#m68650ce9a7" x="330.676364" y="257.68674" style="fill: #0f766e; stroke: #0f766e"/>
     <use xlink:href="#m68650ce9a7" x="416.425227" y="231.468655" style="fill: #0f766e; stroke: #0f766e"/>
    </g>
   </g>
   <g id="line2d_28">
    <path d="M 73.429773 107.453605 
L 159.178636 100.814691 
L 244.9275 94.233743 
L 330.676364 73.208811 
L 416.425227 38.244545 
" clip-path="url(#p60a96c054a)" style="fill: none; stroke: #b45309; stroke-width: 2; stroke-linecap: round"/>
    <defs>
     <path id="mb17a6f8127" d="M 0 -3 
L -3 3 
L 3 3 
z
" style="stroke: #b45309; stroke-linejoin: miter"/>
    </defs>
    <g clip-path="url(#p60a96c054a)">
     <use xlink:href="#mb17a6f8127" x="73.429773" y="107.453605" style="fill: #b45309; stroke: #b45309; stroke-linejoin: miter"/>
     <use xlink:href="#mb17a6f8127" x="159.178636" y="100.814691" style="fill: #b45309; stroke: #b45309; stroke-linejoin: miter"/>
     <use xlink:href="#mb17a6f8127" x="244.9275" y="94.233743" style="fill: #b45309; stroke: #b45309; stroke-linejoin: miter"/>
     <use xlink:href="#mb17a6f8127" x="330.676364" y="73.208811" style="fill: #b45309; stroke: #b45309; stroke-linejoin: miter"/>
     <use xlink:href="#mb17a6f8127" x="416.425227" y="38.244545" style="fill: #b45309; stroke: #b45309; stroke-linejoin: miter"/>
    </g>
   </g>
   <g id="patch_3">
    <path d="M 56.28 307.14 
L 56.28 25.44 
" style="fill: none; stroke: #cccccc; stroke-linejoin: miter; stroke-linecap: square"/>
   </g>
   <g id="patch_4">
    <path d="M 433.575 307.14 
L 433.575 25.44 
" style="fill: none; stroke: #cccccc; stroke-linejoin: miter; stroke-linecap: square"/>
   </g>
   <g id="patch_5">
    <path d="M 56.28 307.14 
L 433.575 307.14 
" style="fill: none; stroke: #cccccc; stroke-linejoin: miter; stroke-linecap: square"/>
   </g>
   <g id="patch_6">
    <path d="M 56.28 25.44 
L 433.575 25.44 
" style="fill: none; stroke: #cccccc; stroke-linejoin: miter; stroke-linecap: square"/>
   </g>
   <g id="text_16">
    <!-- Single-Source Shortest Paths: tiempos totales -->
    <g style="fill: #262626" transform="translate(122.537813 19.44) scale(0.12 -0.12)">
     <defs>
      <path id="LiberationSans-53" d="M 3975 1216 
Q 3975 606 3498 271 
Q 3022 -63 2156 -63 
Q 547 -63 291 1056 
L 869 1172 
Q 969 775 1294 589 
Q 1619 403 2178 403 
Q 2756 403 3070 601 
Q 3384 800 3384 1184 
Q 3384 1400 3286 1534 
Q 3188 1669 3009 1756 
Q 2831 1844 2584 1903 
Q 2338 1963 2038 2031 
Q 1516 2147 1245 2262 
Q 975 2378 819 2520 
Q 663 2663 580 2853 
Q 497 3044 497 3291 
Q 497 3856 930 4162 
Q 1363 4469 2169 4469 
Q 2919 4469 3316 4239 
Q 3713 4009 3872 3456 
L 3284 3353 
Q 3188 3703 2916 3861 
Q 2644 4019 2163 4019 
Q 1634 4019 1356 3844 
Q 1078 3669 1078 3322 
Q 1078 3119 1186 2986 
Q 1294 2853 1497 2761 
Q 1700 2669 2306 2534 
Q 2509 2488 2711 2439 
Q 2913 2391 3097 2323 
Q 3281 2256 3442 2165 
Q 3603 2075 3722 1944 
Q 3841 1813 3908 1634 
Q 3975 1456 3975 1216 
z
" transform="scale(0.015625)"/>
      <path id="LiberationSans-6e" d="M 2578 0 
L 2578 2144 
Q 2578 2478 2512 2662 
Q 2447 2847 2303 2928 
Q 2159 3009 1881 3009 
Q 1475 3009 1240 2731 
Q 1006 2453 1006 1959 
L 1006 0 
L 444 0 
L 444 2659 
Q 444 3250 425 3381 
L 956 3381 
Q 959 3366 962 3297 
Q 966 3228 970 3139 
Q 975 3050 981 2803 
L 991 2803 
Q 1184 3153 1439 3298 
Q 1694 3444 2072 3444 
Q 2628 3444 2886 3167 
Q 3144 2891 3144 2253 
L 3144 0 
L 2578 0 
z
" transform="scale(0.015625)"/>
      <path id="LiberationSans-67" d="M 1713 -1328 
Q 1159 -1328 831 -1111 
Q 503 -894 409 -494 
L 975 -413 
Q 1031 -647 1223 -773 
Q 1416 -900 1728 -900 
Q 2569 -900 2569 84 
L 2569 628 
L 2563 628 
Q 2403 303 2125 139 
Q 1847 -25 1475 -25 
Q 853 -25 561 387 
Q 269 800 269 1684 
Q 269 2581 583 3007 
Q 897 3434 1538 3434 
Q 1897 3434 2161 3270 
Q 2425 3106 2569 2803 
L 2575 2803 
Q 2575 2897 2587 3128 
Q 2600 3359 2613 3381 
L 3147 3381 
Q 3128 3213 3128 2681 
L 3128 97 
Q 3128 -1328 1713 -1328 
z
M 2569 1691 
Q 2569 2103 2456 2401 
Q 2344 2700 2139 2858 
Q 1934 3016 1675 3016 
Q 1244 3016 1047 2703 
Q 850 2391 850 1691 
Q 850 997 1034 694 
Q 1219 391 1666 391 
Q 1931 391 2137 547 
Q 2344 703 2456 995 
Q 2569 1288 2569 1691 
z
" transform="scale(0.015625)"/>
      <path id="LiberationSans-6c" d="M 431 0 
L 431 4638 
L 994 4638 
L 994 0 
L 431 0 
z
" transform="scale(0.015625)"/>
      <path id="LiberationSans-2d" d="M 284 1450 
L 284 1950 
L 1847 1950 
L 1847 1450 
L 284 1450 
z
" transform="scale(0.015625)"/>
      <path id="LiberationSans-75" d="M 981 3381 
L 981 1238 
Q 981 903 1047 718 
Q 1113 534 1256 453 
Q 1400 372 1678 372 
Q 2084 372 2318 650 
Q 2553 928 2553 1422 
L 2553 3381 
L 3116 3381 
L 3116 722 
Q 3116 131 3134 0 
L 2603 0 
Q 2600 16 2597 84 
Q 2594 153 2589 242 
Q 2584 331 2578 578 
L 2569 578 
Q 2375 228 2120 82 
Q 1866 -63 1488 -63 
Q 931 -63 673 214 
Q 416 491 416 1128 
L 416 3381 
L 981 3381 
z
" transform="scale(0.015625)"/>
      <path id="LiberationSans-72" d="M 444 0 
L 444 2594 
Q 444 2950 425 3381 
L 956 3381 
Q 981 2806 981 2691 
L 994 2691 
Q 1128 3125 1303 3284 
Q 1478 3444 1797 3444 
Q 1909 3444 2025 3413 
L 2025 2897 
Q 1913 2928 1725 2928 
Q 1375 2928 1190 2626 
Q 1006 2325 1006 1763 
L 1006 0 
L 444 0 
z
" transform="scale(0.015625)"/>
      <path id="LiberationSans-63" d="M 859 1706 
Q 859 1031 1071 706 
Q 1284 381 1713 381 
Q 2013 381 2214 543 
Q 2416 706 2463 1044 
L 3031 1006 
Q 2966 519 2616 228 
Q 2266 -63 1728 -63 
Q 1019 -63 645 385 
Q 272 834 272 1694 
Q 272 2547 647 2995 
Q 1022 3444 1722 3444 
Q 2241 3444 2583 3175 
Q 2925 2906 3013 2434 
L 2434 2391 
Q 2391 2672 2212 2837 
Q 2034 3003 1706 3003 
Q 1259 3003 1059 2706 
Q 859 2409 859 1706 
z
" transform="scale(0.015625)"/>
      <path id="LiberationSans-68" d="M 991 2803 
Q 1172 3134 1426 3289 
Q 1681 3444 2072 3444 
Q 2622 3444 2883 3170 
Q 3144 2897 3144 2253 
L 3144 0 
L 2578 0 
L 2578 2144 
Q 2578 2500 2512 2673 
Q 2447 2847 2297 2928 
Q 2147 3009 1881 3009 
Q 1484 3009 1245 2734 
Q 1006 2459 1006 1994 
L 1006 0 
L 444 0 
L 444 4638 
L 1006 4638 
L 1006 3431 
Q 1006 3241 995 3037 
Q 984 2834 981 2803 
L 991 2803 
z
" transform="scale(0.015625)"/>
      <path id="LiberationSans-74" d="M 1731 25 
Q 1453 -50 1163 -50 
Q 488 -50 488 716 
L 488 2972 
L 97 2972 
L 97 3381 
L 509 3381 
L 675 4138 
L 1050 4138 
L 1050 3381 
L 1675 3381 
L 1675 2972 
L 1050 2972 
L 1050 838 
Q 1050 594 1129 495 
Q 1209 397 1406 397 
Q 1519 397 1731 441 
L 1731 25 
z
" transform="scale(0.015625)"/>
      <path id="LiberationSans-50" d="M 3931 3078 
Q 3931 2453 3523 2084 
Q 3116 1716 2416 1716 
L 1122 1716 
L 1122 0 
L 525 0 
L 525 4403 
L 2378 4403 
Q 3119 4403 3525 4056 
Q 3931 3709 3931 3078 
z
M 3331 3072 
Q 3331 3925 2306 3925 
L 1122 3925 
L 1122 2188 
L 2331 2188 
Q 3331 2188 3331 3072 
z
" transform="scale(0.015625)"/>
      <path id="LiberationSans-61" d="M 1294 -63 
Q 784 -63 528 206 
Q 272 475 272 944 
Q 272 1469 617 1750 
Q 963 2031 1731 2050 
L 2491 2063 
L 2491 2247 
Q 2491 2659 2316 2837 
Q 2141 3016 1766 3016 
Q 1388 3016 1216 2887 
Q 1044 2759 1009 2478 
L 422 2531 
Q 566 3444 1778 3444 
Q 2416 3444 2737 3151 
Q 3059 2859 3059 2306 
L 3059 850 
Q 3059 600 3125 473 
Q 3191 347 3375 347 
Q 3456 347 3559 369 
L 3559 19 
Q 3347 -31 3125 -31 
Q 2813 -31 2670 133 
Q 2528 297 2509 647 
L 2491 647 
Q 2275 259 1989 98 
Q 1703 -63 1294 -63 
z
M 1422 359 
Q 1731 359 1972 500 
Q 2213 641 2352 886 
Q 2491 1131 2491 1391 
L 2491 1669 
L 1875 1656 
Q 1478 1650 1273 1575 
Q 1069 1500 959 1344 
Q 850 1188 850 934 
Q 850 659 998 509 
Q 1147 359 1422 359 
z
" transform="scale(0.015625)"/>
      <path id="LiberationSans-3a" d="M 584 2734 
L 584 3381 
L 1194 3381 
L 1194 2734 
L 584 2734 
z
M 584 0 
L 584 647 
L 1194 647 
L 1194 0 
L 584 0 
z
" transform="scale(0.015625)"/>
     </defs>
     <use xlink:href="#LiberationSans-53"/>
     <use xlink:href="#LiberationSans-69" transform="translate(66.699219 0)"/>
     <use xlink:href="#LiberationSans-6e" transform="translate(88.916016 0)"/>
     <use xlink:href="#LiberationSans-67" transform="translate(144.53125 0)"/>
     <use xlink:href="#LiberationSans-6c" transform="translate(200.146484 0)"/>
     <use xlink:href="#LiberationSans-65" transform="translate(222.363281 0)"/>
     <use xlink:href="#LiberationSans-2d" transform="translate(277.978516 0)"/>
     <use xlink:href="#LiberationSans-53" transform="translate(311.279297 0)"/>
     <use xlink:href="#LiberationSans-6f" transform="translate(377.978516 0)"/>
     <use xlink:href="#LiberationSans-75" transform="translate(433.59375 0)"/>
     <use xlink:href="#LiberationSans-72" transform="translate(489.208984 0)"/>
     <use xlink:href="#LiberationSans-63" transform="translate(522.509766 0)"/>
     <use xlink:href="#LiberationSans-65" transform="translate(572.509766 0)"/>
     <use xlink:href="#LiberationSans-20" transform="translate(628.125 0)"/>
     <use xlink:href="#LiberationSans-53" transform="translate(655.908203 0)"/>
     <use xlink:href="#LiberationSans-68" transform="translate(722.607422 0)"/>
     <use xlink:href="#LiberationSans-6f" transform="translate(778.222656 0)"/>
     <use xlink:href="#LiberationSans-72" transform="translate(833.837891 0)"/>
     <use xlink:href="#LiberationSans-74" transform="translate(867.138672 0)"/>
     <use xlink:href="#LiberationSans-65" transform="translate(894.921875 0)"/>
     <use xlink:href="#LiberationSans-73" transform="translate(950.537109 0)"/>
     <use xlink:href="#LiberationSans-74" transform="translate(1000.537109 0)"/>
     <use xlink:href="#LiberationSans-20" transform="translate(1028.320312 0)"/>
     <use xlink:href="#LiberationSans-50" transform="translate(1056.103516 0)"/>
     <use xlink:href="#LiberationSans-61" transform="translate(1122.802734 0)"/>
     <use xlink:href="#LiberationSans-74" transform="translate(1178.417969 0)"/>
     <use xlink:href="#LiberationSans-68" transform="translate(1206.201172 0)"/>
     <use xlink:href="#LiberationSans-73" transform="translate(1261.816406 0)"/>
     <use xlink:href="#LiberationSans-3a" transform="translate(1311.816406 0)"/>
     <use xlink:href="#LiberationSans-20" transform="translate(1339.599609 0)"/>
     <use xlink:href="#LiberationSans-74" transform="translate(1367.382812 0)"/>
     <use xlink:href="#LiberationSans-69" transform="translate(1395.166016 0)"/>
     <use xlink:href="#LiberationSans-65" transform="translate(1417.382812 0)"/>
     <use xlink:href="#LiberationSans-6d" transform="translate(1472.998047 0)"/>
     <use xlink:href="#LiberationSans-70" transform="translate(1556.298828 0)"/>
     <use xlink:href="#LiberationSans-6f" transform="translate(1611.914062 0)"/>
     <use xlink:href="#LiberationSans-73" transform="translate(1667.529297 0)"/>
     <use xlink:href="#LiberationSans-20" transform="translate(1717.529297 0)"/>
     <use xlink:href="#LiberationSans-74" transform="translate(1745.3125 0)"/>
     <use xlink:href="#LiberationSans-6f" transform="translate(1773.095703 0)"/>
     <use xlink:href="#LiberationSans-74" transform="translate(1828.710938 0)"/>
     <use xlink:href="#LiberationSans-61" transform="translate(1856.494141 0)"/>
     <use xlink:href="#LiberationSans-6c" transform="translate(1912.109375 0)"/>
     <use xlink:href="#LiberationSans-65" transform="translate(1934.326172 0)"/>
     <use xlink:href="#LiberationSans-73" transform="translate(1989.941406 0)"/>
    </g>
   </g>
   <g id="legend_1">
    <g id="line2d_29">
     <path d="M 63.48 35.6375 
L 71.48 35.6375 
L 79.48 35.6375 
" style="fill: none; stroke: #0f766e; stroke-width: 2; stroke-linecap: round"/>
     <g>
      <use xlink:href="#m68650ce9a7" x="71.48" y="35.6375" style="fill: #0f766e; stroke: #0f766e"/>
     </g>
    </g>
    <g id="text_17">
     <!-- Standalone total -->
     <g style="fill: #262626" transform="translate(85.88 38.4375) scale(0.08 -0.08)">
      <use xlink:href="#LiberationSans-53"/>
      <use xlink:href="#LiberationSans-74" transform="translate(66.699219 0)"/>
      <use xlink:href="#LiberationSans-61" transform="translate(94.482422 0)"/>
      <use xlink:href="#LiberationSans-6e" transform="translate(150.097656 0)"/>
      <use xlink:href="#LiberationSans-64" transform="translate(205.712891 0)"/>
      <use xlink:href="#LiberationSans-61" transform="translate(261.328125 0)"/>
      <use xlink:href="#LiberationSans-6c" transform="translate(316.943359 0)"/>
      <use xlink:href="#LiberationSans-6f" transform="translate(339.160156 0)"/>
      <use xlink:href="#LiberationSans-6e" transform="translate(394.775391 0)"/>
      <use xlink:href="#LiberationSans-65" transform="translate(450.390625 0)"/>
      <use xlink:href="#LiberationSans-20" transform="translate(506.005859 0)"/>
      <use xlink:href="#LiberationSans-74" transform="translate(533.789062 0)"/>
      <use xlink:href="#LiberationSans-6f" transform="translate(561.572266 0)"/>
      <use xlink:href="#LiberationSans-74" transform="translate(617.1875 0)"/>
      <use xlink:href="#LiberationSans-61" transform="translate(644.970703 0)"/>
      <use xlink:href="#LiberationSans-6c" transform="translate(700.585938 0)"/>
     </g>
    </g>
    <g id="line2d_30">
     <path d="M 63.48 47.095 
L 71.48 47.095 
L 79.48 47.095 
" style="fill: none; stroke: #b45309; stroke-width: 2; stroke-linecap: round"/>
     <g>
      <use xlink:href="#mb17a6f8127" x="71.48" y="47.095" style="fill: #b45309; stroke: #b45309; stroke-linejoin: miter"/>
     </g>
    </g>
    <g id="text_18">
     <!-- Burst cold total -->
     <g style="fill: #262626" transform="translate(85.88 49.895) scale(0.08 -0.08)">
      <defs>
       <path id="LiberationSans-42" d="M 3931 1241 
Q 3931 653 3503 326 
Q 3075 0 2313 0 
L 525 0 
L 525 4403 
L 2125 4403 
Q 3675 4403 3675 3334 
Q 3675 2944 3456 2678 
Q 3238 2413 2838 2322 
Q 3363 2259 3647 1970 
Q 3931 1681 3931 1241 
z
M 3075 3263 
Q 3075 3619 2831 3772 
Q 2588 3925 2125 3925 
L 1122 3925 
L 1122 2531 
L 2125 2531 
Q 2603 2531 2839 2711 
Q 3075 2891 3075 3263 
z
M 3328 1288 
Q 3328 2066 2234 2066 
L 1122 2066 
L 1122 478 
L 2281 478 
Q 2828 478 3078 681 
Q 3328 884 3328 1288 
z
" transform="scale(0.015625)"/>
      </defs>
      <use xlink:href="#LiberationSans-42"/>
      <use xlink:href="#LiberationSans-75" transform="translate(66.699219 0)"/>
      <use xlink:href="#LiberationSans-72" transform="translate(122.314453 0)"/>
      <use xlink:href="#LiberationSans-73" transform="translate(155.615234 0)"/>
      <use xlink:href="#LiberationSans-74" transform="translate(205.615234 0)"/>
      <use xlink:href="#LiberationSans-20" transform="translate(233.398438 0)"/>
      <use xlink:href="#LiberationSans-63" transform="translate(261.181641 0)"/>
      <use xlink:href="#LiberationSans-6f" transform="translate(311.181641 0)"/>
      <use xlink:href="#LiberationSans-6c" transform="translate(366.796875 0)"/>
      <use xlink:href="#LiberationSans-64" transform="translate(389.013672 0)"/>
      <use xlink:href="#LiberationSans-20" transform="translate(444.628906 0)"/>
      <use xlink:href="#LiberationSans-74" transform="translate(472.412109 0)"/>
      <use xlink:href="#LiberationSans-6f" transform="translate(500.195312 0)"/>
      <use xlink:href="#LiberationSans-74" transform="translate(555.810547 0)"/>
      <use xlink:href="#LiberationSans-61" transform="translate(583.59375 0)"/>
      <use xlink:href="#LiberationSans-6c" transform="translate(639.208984 0)"/>
     </g>
    </g>
   </g>
  </g>
  <g id="axes_2">
   <g id="patch_7">
    <path d="M 475.905 307.14 
L 853.2 307.14 
L 853.2 25.44 
L 475.905 25.44 
z
" style="fill: #ffffff"/>
   </g>
   <g id="matplotlib.axis_3">
    <g id="xtick_6">
     <g id="line2d_31">
      <path d="M 493.054773 307.14 
L 493.054773 25.44 
" clip-path="url(#p04fb647ae3)" style="fill: none; stroke: #cccccc; stroke-width: 0.8; stroke-linecap: round"/>
     </g>
     <g id="line2d_32"/>
     <g id="text_19">
      <!-- 100k -->
      <g style="fill: #262626" transform="translate(482.213366 317.886875) scale(0.1 -0.1)">
       <use xlink:href="#LiberationSans-31"/>
       <use xlink:href="#LiberationSans-30" transform="translate(55.615234 0)"/>
       <use xlink:href="#LiberationSans-30" transform="translate(111.230469 0)"/>
       <use xlink:href="#LiberationSans-6b" transform="translate(166.845703 0)"/>
      </g>
     </g>
    </g>
    <g id="xtick_7">
     <g id="line2d_33">
      <path d="M 578.803636 307.14 
L 578.803636 25.44 
" clip-path="url(#p04fb647ae3)" style="fill: none; stroke: #cccccc; stroke-width: 0.8; stroke-linecap: round"/>
     </g>
     <g id="line2d_34"/>
     <g id="text_20">
      <!-- 500k -->
      <g style="fill: #262626" transform="translate(567.96223 317.886875) scale(0.1 -0.1)">
       <use xlink:href="#LiberationSans-35"/>
       <use xlink:href="#LiberationSans-30" transform="translate(55.615234 0)"/>
       <use xlink:href="#LiberationSans-30" transform="translate(111.230469 0)"/>
       <use xlink:href="#LiberationSans-6b" transform="translate(166.845703 0)"/>
      </g>
     </g>
    </g>
    <g id="xtick_8">
     <g id="line2d_35">
      <path d="M 664.5525 307.14 
L 664.5525 25.44 
" clip-path="url(#p04fb647ae3)" style="fill: none; stroke: #cccccc; stroke-width: 0.8; stroke-linecap: round"/>
     </g>
     <g id="line2d_36"/>
     <g id="text_21">
      <!-- 1.0M -->
      <g style="fill: #262626" transform="translate(653.437656 317.886875) scale(0.1 -0.1)">
       <use xlink:href="#LiberationSans-31"/>
       <use xlink:href="#LiberationSans-2e" transform="translate(55.615234 0)"/>
       <use xlink:href="#LiberationSans-30" transform="translate(83.398438 0)"/>
       <use xlink:href="#LiberationSans-4d" transform="translate(139.013672 0)"/>
      </g>
     </g>
    </g>
    <g id="xtick_9">
     <g id="line2d_37">
      <path d="M 750.301364 307.14 
L 750.301364 25.44 
" clip-path="url(#p04fb647ae3)" style="fill: none; stroke: #cccccc; stroke-width: 0.8; stroke-linecap: round"/>
     </g>
     <g id="line2d_38"/>
     <g id="text_22">
      <!-- 2.0M -->
      <g style="fill: #262626" transform="translate(739.18652 317.886875) scale(0.1 -0.1)">
       <use xlink:href="#LiberationSans-32"/>
       <use xlink:href="#LiberationSans-2e" transform="translate(55.615234 0)"/>
       <use xlink:href="#LiberationSans-30" transform="translate(83.398438 0)"/>
       <use xlink:href="#LiberationSans-4d" transform="translate(139.013672 0)"/>
      </g>
     </g>
    </g>
    <g id="xtick_10">
     <g id="line2d_39">
      <path d="M 836.050227 307.14 
L 836.050227 25.44 
" clip-path="url(#p04fb647ae3)" style="fill: none; stroke: #cccccc; stroke-width: 0.8; stroke-linecap: round"/>
     </g>
     <g id="line2d_40"/>
     <g id="text_23">
      <!-- 3.0M -->
      <g style="fill: #262626" transform="translate(824.935384 317.886875) scale(0.1 -0.1)">
       <use xlink:href="#LiberationSans-33"/>
       <use xlink:href="#LiberationSans-2e" transform="translate(55.615234 0)"/>
       <use xlink:href="#LiberationSans-30" transform="translate(83.398438 0)"/>
       <use xlink:href="#LiberationSans-4d" transform="translate(139.013672 0)"/>
      </g>
     </g>
    </g>
    <g id="text_24">
     <!-- Nodos -->
     <g style="fill: #262626" transform="translate(650.100156 331.20875) scale(0.1 -0.1)">
      <use xlink:href="#LiberationSans-4e"/>
      <use xlink:href="#LiberationSans-6f" transform="translate(72.216797 0)"/>
      <use xlink:href="#LiberationSans-64" transform="translate(127.832031 0)"/>
      <use xlink:href="#LiberationSans-6f" transform="translate(183.447266 0)"/>
      <use xlink:href="#LiberationSans-73" transform="translate(239.0625 0)"/>
     </g>
    </g>
   </g>
   <g id="matplotlib.axis_4">
    <g id="ytick_9">
     <g id="line2d_41">
      <path d="M 475.905 296.322656 
L 853.2 296.322656 
" clip-path="url(#p04fb647ae3)" style="fill: none; stroke: #cccccc; stroke-width: 0.8; stroke-linecap: round"/>
     </g>
     <g id="line2d_42"/>
     <g id="text_25">
      <!-- 0.0 -->
      <g style="fill: #262626" transform="translate(458.505 299.946093) scale(0.1 -0.1)">
       <use xlink:href="#LiberationSans-30"/>
       <use xlink:href="#LiberationSans-2e" transform="translate(55.615234 0)"/>
       <use xlink:href="#LiberationSans-30" transform="translate(83.398438 0)"/>
      </g>
     </g>
    </g>
    <g id="ytick_10">
     <g id="line2d_43">
      <path d="M 475.905 244.707034 
L 853.2 244.707034 
" clip-path="url(#p04fb647ae3)" style="fill: none; stroke: #cccccc; stroke-width: 0.8; stroke-linecap: round"/>
     </g>
     <g id="line2d_44"/>
     <g id="text_26">
      <!-- 0.2 -->
      <g style="fill: #262626" transform="translate(458.505 248.330471) scale(0.1 -0.1)">
       <use xlink:href="#LiberationSans-30"/>
       <use xlink:href="#LiberationSans-2e" transform="translate(55.615234 0)"/>
       <use xlink:href="#LiberationSans-32" transform="translate(83.398438 0)"/>
      </g>
     </g>
    </g>
    <g id="ytick_11">
     <g id="line2d_45">
      <path d="M 475.905 193.091412 
L 853.2 193.091412 
" clip-path="url(#p04fb647ae3)" style="fill: none; stroke: #cccccc; stroke-width: 0.8; stroke-linecap: round"/>
     </g>
     <g id="line2d_46"/>
     <g id="text_27">
      <!-- 0.4 -->
      <g style="fill: #262626" transform="translate(458.505 196.714849) scale(0.1 -0.1)">
       <use xlink:href="#LiberationSans-30"/>
       <use xlink:href="#LiberationSans-2e" transform="translate(55.615234 0)"/>
       <use xlink:href="#LiberationSans-34" transform="translate(83.398438 0)"/>
      </g>
     </g>
    </g>
    <g id="ytick_12">
     <g id="line2d_47">
      <path d="M 475.905 141.47579 
L 853.2 141.47579 
" clip-path="url(#p04fb647ae3)" style="fill: none; stroke: #cccccc; stroke-width: 0.8; stroke-linecap: round"/>
     </g>
     <g id="line2d_48"/>
     <g id="text_28">
      <!-- 0.6 -->
      <g style="fill: #262626" transform="translate(458.505 145.099227) scale(0.1 -0.1)">
       <use xlink:href="#LiberationSans-30"/>
       <use xlink:href="#LiberationSans-2e" transform="translate(55.615234 0)"/>
       <use xlink:href="#LiberationSans-36" transform="translate(83.398438 0)"/>
      </g>
     </g>
    </g>
    <g id="ytick_13">
     <g id="line2d_49">
      <path d="M 475.905 89.860168 
L 853.2 89.860168 
" clip-path="url(#p04fb647ae3)" style="fill: none; stroke: #cccccc; stroke-width: 0.8; stroke-linecap: round"/>
     </g>
     <g id="line2d_50"/>
     <g id="text_29">
      <!-- 0.8 -->
      <g style="fill: #262626" transform="translate(458.505 93.483605) scale(0.1 -0.1)">
       <use xlink:href="#LiberationSans-30"/>
       <use xlink:href="#LiberationSans-2e" transform="translate(55.615234 0)"/>
       <use xlink:href="#LiberationSans-38" transform="translate(83.398438 0)"/>
      </g>
     </g>
    </g>
    <g id="ytick_14">
     <g id="line2d_51">
      <path d="M 475.905 38.244545 
L 853.2 38.244545 
" clip-path="url(#p04fb647ae3)" style="fill: none; stroke: #cccccc; stroke-width: 0.8; stroke-linecap: round"/>
     </g>
     <g id="line2d_52"/>
     <g id="text_30">
      <!-- 1.0 -->
      <g style="fill: #262626" transform="translate(458.505 41.867983) scale(0.1 -0.1)">
       <use xlink:href="#LiberationSans-31"/>
       <use xlink:href="#LiberationSans-2e" transform="translate(55.615234 0)"/>
       <use xlink:href="#LiberationSans-30" transform="translate(83.398438 0)"/>
      </g>
     </g>
    </g>
    <g id="text_31">
     <!-- Speedup (x) -->
     <g style="fill: #262626" transform="translate(452.43 193.526719) rotate(-90) scale(0.1 -0.1)">
      <defs>
       <path id="LiberationSans-78" d="M 2503 0 
L 1594 1388 
L 678 0 
L 72 0 
L 1275 1738 
L 128 3381 
L 750 3381 
L 1594 2066 
L 2431 3381 
L 3059 3381 
L 1913 1744 
L 3131 0 
L 2503 0 
z
" transform="scale(0.015625)"/>
      </defs>
      <use xlink:href="#LiberationSans-53"/>
      <use xlink:href="#LiberationSans-70" transform="translate(66.699219 0)"/>
      <use xlink:href="#LiberationSans-65" transform="translate(122.314453 0)"/>
      <use xlink:href="#LiberationSans-65" transform="translate(177.929688 0)"/>
      <use xlink:href="#LiberationSans-64" transform="translate(233.544922 0)"/>
      <use xlink:href="#LiberationSans-75" transform="translate(289.160156 0)"/>
      <use xlink:href="#LiberationSans-70" transform="translate(344.775391 0)"/>
      <use xlink:href="#LiberationSans-20" transform="translate(400.390625 0)"/>
      <use xlink:href="#LiberationSans-28" transform="translate(428.173828 0)"/>
      <use xlink:href="#LiberationSans-78" transform="translate(461.474609 0)"/>
      <use xlink:href="#LiberationSans-29" transform="translate(511.474609 0)"/>
     </g>
    </g>
   </g>
   <g id="line2d_53">
    <path d="M 493.054773 294.335455 
L 578.803636 284.941411 
L 664.5525 276.166756 
L 750.301364 250.41056 
L 836.050227 229.506233 
" clip-path="url(#p04fb647ae3)" style="fill: none; stroke: #dc2626; stroke-width: 2; stroke-linecap: round"/>
    <defs>
     <path id="mf19f135da3" d="M -3 3 
L 3 3 
L 3 -3 
L -3 -3 
z
" style="stroke: #dc2626; stroke-linejoin: miter"/>
    </defs>
    <g clip-path="url(#p04fb647ae3)">
     <use xlink:href="#mf19f135da3" x="493.054773" y="294.335455" style="fill: #dc2626; stroke: #dc2626; stroke-linejoin: miter"/>
     <use xlink:href="#mf19f135da3" x="578.803636" y="284.941411" style="fill: #dc2626; stroke: #dc2626; stroke-linejoin: miter"/>
     <use xlink:href="#mf19f135da3" x="664.5525" y="276.166756" style="fill: #dc2626; stroke: #dc2626; stroke-linejoin: miter"/>
     <use xlink:href="#mf19f135da3" x="750.301364" y="250.41056" style="fill: #dc2626; stroke: #dc2626; stroke-linejoin: miter"/>
     <use xlink:href="#mf19f135da3" x="836.050227" y="229.506233" style="fill: #dc2626; stroke: #dc2626; stroke-linejoin: miter"/>
    </g>
   </g>
   <g id="line2d_54">
    <path d="M 493.054773 294.077376 
L 578.803636 284.941411 
L 664.5525 274.515056 
L 750.301364 251.959029 
L 836.050227 231.725705 
" clip-path="url(#p04fb647ae3)" style="fill: none; stroke: #2563eb; stroke-width: 2; stroke-linecap: round"/>
    <defs>
     <path id="m1ed8aacd06" d="M 0 -3 
L -3 3 
L 3 3 
z
" style="stroke: #2563eb; stroke-linejoin: miter"/>
    </defs>
    <g clip-path="url(#p04fb647ae3)">
     <use xlink:href="#m1ed8aacd06" x="493.054773" y="294.077376" style="fill: #2563eb; stroke: #2563eb; stroke-linejoin: miter"/>
     <use xlink:href="#m1ed8aacd06" x="578.803636" y="284.941411" style="fill: #2563eb; stroke: #2563eb; stroke-linejoin: miter"/>
     <use xlink:href="#m1ed8aacd06" x="664.5525" y="274.515056" style="fill: #2563eb; stroke: #2563eb; stroke-linejoin: miter"/>
     <use xlink:href="#m1ed8aacd06" x="750.301364" y="251.959029" style="fill: #2563eb; stroke: #2563eb; stroke-linejoin: miter"/>
     <use xlink:href="#m1ed8aacd06" x="836.050227" y="231.725705" style="fill: #2563eb; stroke: #2563eb; stroke-linejoin: miter"/>
    </g>
   </g>
   <g id="line2d_55">
    <path d="M 475.905 38.244545 
L 853.2 38.244545 
" clip-path="url(#p04fb647ae3)" style="fill: none; stroke-dasharray: 3.7,1.6; stroke-dashoffset: 0; stroke: #374151"/>
   </g>
   <g id="patch_8">
    <path d="M 475.905 307.14 
L 475.905 25.44 
" style="fill: none; stroke: #cccccc; stroke-linejoin: miter; stroke-linecap: square"/>
   </g>
   <g id="patch_9">
    <path d="M 853.2 307.14 
L 853.2 25.44 
" style="fill: none; stroke: #cccccc; stroke-linejoin: miter; stroke-linecap: square"/>
   </g>
   <g id="patch_10">
    <path d="M 475.905 307.14 
L 853.2 307.14 
" style="fill: none; stroke: #cccccc; stroke-linejoin: miter; stroke-linecap: square"/>
   </g>
   <g id="patch_11">
    <path d="M 475.905 25.44 
L 853.2 25.44 
" style="fill: none; stroke: #cccccc; stroke-linejoin: miter; stroke-linecap: square"/>
   </g>
   <g id="text_32">
    <!-- Single-Source Shortest Paths: speedups -->
    <g style="fill: #262626" transform="translate(556.494375 19.44) scale(0.12 -0.12)">
     <use xlink:href="#LiberationSans-53"/>
     <use xlink:href="#LiberationSans-69" transform="translate(66.699219 0)"/>
     <use xlink:href="#LiberationSans-6e" transform="translate(88.916016 0)"/>
     <use xlink:href="#LiberationSans-67" transform="translate(144.53125 0)"/>
     <use xlink:href="#LiberationSans-6c" transform="translate(200.146484 0)"/>
     <use xlink:href="#LiberationSans-65" transform="translate(222.363281 0)"/>
     <use xlink:href="#LiberationSans-2d" transform="translate(277.978516 0)"/>
     <use xlink:href="#LiberationSans-53" transform="translate(311.279297 0)"/>
     <use xlink:href="#LiberationSans-6f" transform="translate(377.978516 0)"/>
     <use xlink:href="#LiberationSans-75" transform="translate(433.59375 0)"/>
     <use xlink:href="#LiberationSans-72" transform="translate(489.208984 0)"/>
     <use xlink:href="#LiberationSans-63" transform="translate(522.509766 0)"/>
     <use xlink:href="#LiberationSans-65" transform="translate(572.509766 0)"/>
     <use xlink:href="#LiberationSans-20" transform="translate(628.125 0)"/>
     <use xlink:href="#LiberationSans-53" transform="translate(655.908203 0)"/>
     <use xlink:href="#LiberationSans-68" transform="translate(722.607422 0)"/>
     <use xlink:href="#LiberationSans-6f" transform="translate(778.222656 0)"/>
     <use xlink:href="#LiberationSans-72" transform="translate(833.837891 0)"/>
     <use xlink:href="#LiberationSans-74" transform="translate(867.138672 0)"/>
     <use xlink:href="#LiberationSans-65" transform="translate(894.921875 0)"/>
     <use xlink:href="#LiberationSans-73" transform="translate(950.537109 0)"/>
     <use xlink:href="#LiberationSans-74" transform="translate(1000.537109 0)"/>
     <use xlink:href="#LiberationSans-20" transform="translate(1028.320312 0)"/>
     <use xlink:href="#LiberationSans-50" transform="translate(1056.103516 0)"/>
     <use xlink:href="#LiberationSans-61" transform="translate(1122.802734 0)"/>
     <use xlink:href="#LiberationSans-74" transform="translate(1178.417969 0)"/>
     <use xlink:href="#LiberationSans-68" transform="translate(1206.201172 0)"/>
     <use xlink:href="#LiberationSans-73" transform="translate(1261.816406 0)"/>
     <use xlink:href="#LiberationSans-3a" transform="translate(1311.816406 0)"/>
     <use xlink:href="#LiberationSans-20" transform="translate(1339.599609 0)"/>
     <use xlink:href="#LiberationSans-73" transform="translate(1367.382812 0)"/>
     <use xlink:href="#LiberationSans-70" transform="translate(1417.382812 0)"/>
     <use xlink:href="#LiberationSans-65" transform="translate(1472.998047 0)"/>
     <use xlink:href="#LiberationSans-65" transform="translate(1528.613281 0)"/>
     <use xlink:href="#LiberationSans-64" transform="translate(1584.228516 0)"/>
     <use xlink:href="#LiberationSans-75" transform="translate(1639.84375 0)"/>
     <use xlink:href="#LiberationSans-70" transform="translate(1695.458984 0)"/>
     <use xlink:href="#LiberationSans-73" transform="translate(1751.074219 0)"/>
    </g>
   </g>
   <g id="legend_2">
    <g id="line2d_56">
     <path d="M 757.33125 284.0225 
L 765.33125 284.0225 
L 773.33125 284.0225 
" style="fill: none; stroke: #dc2626; stroke-width: 2; stroke-linecap: round"/>
     <g>
      <use xlink:href="#mf19f135da3" x="765.33125" y="284.0225" style="fill: #dc2626; stroke: #dc2626; stroke-linejoin: miter"/>
     </g>
    </g>
    <g id="text_33">
     <!-- Speedup span -->
     <g style="fill: #262626" transform="translate(779.73125 286.8225) scale(0.08 -0.08)">
      <use xlink:href="#LiberationSans-53"/>
      <use xlink:href="#LiberationSans-70" transform="translate(66.699219 0)"/>
      <use xlink:href="#LiberationSans-65" transform="translate(122.314453 0)"/>
      <use xlink:href="#LiberationSans-65" transform="translate(177.929688 0)"/>
      <use xlink:href="#LiberationSans-64" transform="translate(233.544922 0)"/>
      <use xlink:href="#LiberationSans-75" transform="translate(289.160156 0)"/>
      <use xlink:href="#LiberationSans-70" transform="translate(344.775391 0)"/>
      <use xlink:href="#LiberationSans-20" transform="translate(400.390625 0)"/>
      <use xlink:href="#LiberationSans-73" transform="translate(428.173828 0)"/>
      <use xlink:href="#LiberationSans-70" transform="translate(478.173828 0)"/>
      <use xlink:href="#LiberationSans-61" transform="translate(533.789062 0)"/>
      <use xlink:href="#LiberationSans-6e" transform="translate(589.404297 0)"/>
     </g>
    </g>
    <g id="line2d_57">
     <path d="M 757.33125 295.48 
L 765.33125 295.48 
L 773.33125 295.48 
" style="fill: none; stroke: #2563eb; stroke-width: 2; stroke-linecap: round"/>
     <g>
      <use xlink:href="#m1ed8aacd06" x="765.33125" y="295.48" style="fill: #2563eb; stroke: #2563eb; stroke-linejoin: miter"/>
     </g>
    </g>
    <g id="text_34">
     <!-- Speedup cold total -->
     <g style="fill: #262626" transform="translate(779.73125 298.28) scale(0.08 -0.08)">
      <use xlink:href="#LiberationSans-53"/>
      <use xlink:href="#LiberationSans-70" transform="translate(66.699219 0)"/>
      <use xlink:href="#LiberationSans-65" transform="translate(122.314453 0)"/>
      <use xlink:href="#LiberationSans-65" transform="translate(177.929688 0)"/>
      <use xlink:href="#LiberationSans-64" transform="translate(233.544922 0)"/>
      <use xlink:href="#LiberationSans-75" transform="translate(289.160156 0)"/>
      <use xlink:href="#LiberationSans-70" transform="translate(344.775391 0)"/>
      <use xlink:href="#LiberationSans-20" transform="translate(400.390625 0)"/>
      <use xlink:href="#LiberationSans-63" transform="translate(428.173828 0)"/>
      <use xlink:href="#LiberationSans-6f" transform="translate(478.173828 0)"/>
      <use xlink:href="#LiberationSans-6c" transform="translate(533.789062 0)"/>
      <use xlink:href="#LiberationSans-64" transform="translate(556.005859 0)"/>
      <use xlink:href="#LiberationSans-20" transform="translate(611.621094 0)"/>
      <use xlink:href="#LiberationSans-74" transform="translate(639.404297 0)"/>
      <use xlink:href="#LiberationSans-6f" transform="translate(667.1875 0)"/>
      <use xlink:href="#LiberationSans-74" transform="translate(722.802734 0)"/>
      <use xlink:href="#LiberationSans-61" transform="translate(750.585938 0)"/>
      <use xlink:href="#LiberationSans-6c" transform="translate(806.201172 0)"/>
     </g>
    </g>
   </g>
  </g>
 </g>
 <defs>
  <clipPath id="p60a96c054a">
   <rect x="56.28" y="25.44" width="377.295" height="281.7"/>
  </clipPath>
  <clipPath id="p04fb647ae3">
   <rect x="475.905" y="25.44" width="377.295" height="281.7"/>
  </clipPath>
 </defs>
</svg>
